<svg xmlns="http://www.w3.org/2000/svg" viewBox="0 0 213.9 189.35"><defs><style>.cls-1{fill:#fdfdfc;}.cls-2,.cls-8{font-size:60px;font-family:PlayfairDisplay-Bold, Playfair Display;font-weight:700;}.cls-2{letter-spacing:-0.01em;}.cls-3{letter-spacing:-0.01em;}.cls-4{letter-spacing:-0.01em;}.cls-5{letter-spacing:-0.01em;}.cls-6{letter-spacing:-0.01em;}.cls-7{letter-spacing:-0.02em;}.cls-9{letter-spacing:-0.02em;}.cls-10{fill:#ffb4d4;}</style></defs><title>Asset 1</title><g id="Layer_2" data-name="Layer 2"><g id="Layer_1-2" data-name="Layer 1"><rect class="cls-1" width="213.9" height="187.83"/><text class="cls-2" transform="translate(9.54 174.77)">F<tspan class="cls-3" x="35.04" y="0">l</tspan><tspan class="cls-4" x="53.1" y="0">o</tspan><tspan class="cls-5" x="86.28" y="0">w</tspan><tspan class="cls-6" x="132.6" y="0">e</tspan><tspan class="cls-7" x="162.48" y="0">r</tspan></text><text class="cls-8" transform="translate(9.54 122.16)"><tspan class="cls-9">F</tspan><tspan class="cls-6" x="34.02" y="0">e</tspan><tspan x="63.9" y="0">rn </tspan></text><path class="cls-10" d="M4.15,59.93c3,.63,5.42,2.48,7.82,4.34,5.24,4,10.66,5.48,16.51,2.39,1.71-.9,3.78-.92,5.44-2.15a.39.39,0,0,0-.13-.67c-2.4-.66-4.57.11-6.58,1C22,67.07,17.49,65.29,13.12,62c-.19-.15-.36-.34-.55-.5-3.07-2.42-3-2.36.33-4.22s6.79-4.07,10.28-5.91c4.59-2.41,9.46-1.94,14.42-1a.38.38,0,0,1,.09.71c-2.7,1.17-4.64,3.52-7.08,5-.57.35-1.51.8-1,1.66s1.42.49,2.08,0c.91-.65,1.78-1.34,2.63-2.07A13,13,0,0,1,40,52.54c.74-.16,1.66-.64,2.17.3a1.9,1.9,0,0,1-.47,2.1A23.43,23.43,0,0,1,38.93,58c-3.91,3.57-3.14,8.66,1.59,10.86a41.31,41.31,0,0,0,4.27,1.71,24.85,24.85,0,0,1,10.39,6.33c1,1.1,2,1.39,2.9-.06a10.9,10.9,0,0,1,3.54-3.19,19.61,19.61,0,0,0,6.43-7.43c1.36-2.55,1.9-5.39-.09-8.11-1-1.35-.32-1.62.77-2a25,25,0,0,0,13.11-9.91c1.17-1.76,2.27-3.57,2.24-5.94,0-1.45-.45-2.08-1.87-1.69-3.55,1-7.12.33-10.56-.8C64,35.27,57.38,36.09,52,42.54c-.08.1-.27.1-.59.2a4.36,4.36,0,0,1,1.21-3.55,13.47,13.47,0,0,0,2.68-4.92c.43-1.92.48-3.74-1.3-5-.91-.66-.68-1.35-.47-2.21a7.63,7.63,0,0,0-.48-5.91c-.44-.75-.95-1.74-1.69-1.73-2.55,0-3-2.21-4.09-3.87a26.39,26.39,0,0,0-3.67-4.78c-2.27-2.28-3.33-2.39-5.76-.4-.35.29-.63.44-1,.18L31.69,7.38A1.85,1.85,0,0,0,29,8.11c-.81,1.86,1.78,3.08,3.31,4,1,.63,2.89.77,1.34,2.88-.64.88.19,1.93.88,2.69a18.54,18.54,0,0,0,5.43,3.79c1.22.63,2.84,1,2,3.23-.32.79.38,1.77.86,2.59a23.74,23.74,0,0,0,4.66,5.92c2.48,2.17,2.25,4.59,1.68,7.57a.34.34,0,0,1-.67,0c-.83-3.23-1.64-5.94-3.57-8.23-4.91-5.83-11-8.77-18-8.84A81.09,81.09,0,0,1,10,22.29c-.9-.2-1.82-.3-2.21.79a1.77,1.77,0,0,0,1,2.14c2.25,1.36,2.76,3.53,3.1,6,1.05,7.49,4.7,13,11.47,15.93l.39.15a.39.39,0,0,1,0,.67c-3.18,1.87-6.25,3.8-9.44,5.46-2.49,1.29-4.73,3.36-7.75,3.25a3.74,3.74,0,0,0-3.06,1.18ZM41.86,48.48a.36.36,0,0,1-.31.59c-2-.31-3.61-1-5.26-1.37-4.06-1-8.27.39-12.29-2.62C19.81,42,16,39,14.93,33.36c-.41-2.08-.92-4.16-1.5-6.2-.34-1.21-.3-1.8,1.08-1.51,3.94.85,7.89.5,11.84.56A21.28,21.28,0,0,1,43,34,14,14,0,0,1,45.87,47c-.59,2.4-1,2.39-2.71.5-2.85-3.19-5.73-6.33-9.49-8.31-.87-.46-1.74-1.09-3-.72a.38.38,0,0,0,0,.69A32.47,32.47,0,0,1,41.86,48.48ZM66.71,60a5.89,5.89,0,0,1-.22,4.64c-2,4.35-5.75,6.89-9,9.91-.66.6-1.18.11-1.63-.42-3.54-4.13-8.07-6.19-13-7.51-1.76-.48-3.55-1.16-4-3.22s.94-3.44,2.3-4.58,3-2.39,3.2-4.67c.07-.84.48-1,1.32-.78,3.56.91,4.47,2.34,4.07,6.73-.06.65-.4,1.5.41,1.78s1.16-.68,1.31-1.37A7.61,7.61,0,0,0,51,55.05c-.82-1.46-.28-1.58.9-1.44A41.74,41.74,0,0,1,62.21,55.9,7.6,7.6,0,0,1,66.71,60ZM48.29,51.45a.38.38,0,0,1-.15-.72,14.81,14.81,0,0,1,8.38-.33A30.21,30.21,0,0,0,62,51a6,6,0,0,0,4.56-2.2c.38-.4.94-.83.58-1.48-.45-.82-1.2-.49-1.66-.12-3.9,3.08-8.27.73-12.43.79-.69,0-1.1-.38-.55-1.12,3.23-4.39,6.61-8.47,12.7-7.83A35.56,35.56,0,0,1,71,40.21a25.18,25.18,0,0,0,9.42,1.09c.58-.06,1.34-.57,1.76.1s-.25,1.4-.57,2c-3.36,6.46-9.24,9.33-15.31,11.9-.59.24-1.08-.08-1.57-.4a17.67,17.67,0,0,0-5.64-2.1A47.63,47.63,0,0,0,48.29,51.45Zm-.95-32.31a.22.22,0,0,1,0,.1c.09.47.38,1,0,1.37a.52.52,0,0,1-.82-.18C44.73,17.51,41.58,16,39.91,13c-.37-.69-.88-1.38-.28-2.07.73-.85,1.51-.19,2.1.32A23.72,23.72,0,0,1,47.34,19.14Zm-3.75,1.34c.23.31-.08.73-.41.56-2.42-1.27-5-2.13-7.18-4-.38-.33-1.08-.72-.67-1.41.29-.48.86-.23,1.3-.07A14,14,0,0,1,43.59,20.48Zm7.43,7a.33.33,0,0,1-.59-.12C50,26,48.8,25,49,23.46c.1-1,.22-2.27,1.34-2.33s1.55,1.17,1.65,2.18A5.89,5.89,0,0,1,51,27.46ZM48.14,31a19.74,19.74,0,0,1-4.27-5.37c-.16-.34.17-.67.47-.48,2.08,1.3,4,2.69,4.38,5.54A.34.34,0,0,1,48.14,31Zm4.4,4.68a.34.34,0,0,1-.59-.11c-.41-1.13-.11-2.25-.39-3.3-.23-.83,0-1.59.91-1.64,1-.05,1.33.79,1.29,1.72A5.64,5.64,0,0,1,52.54,35.72ZM32.19,9.65a9.71,9.71,0,0,1,3.72,1.88.37.37,0,0,1-.27.67,10.11,10.11,0,0,1-3.71-1.88A.37.37,0,0,1,32.19,9.65Zm10.55,40-.09.13-.06-.15Z"/></g></g></svg>