<svg xmlns="http://www.w3.org/2000/svg" viewBox="0 0 138 138"><defs><style>.cls-1{fill:#fff;}</style></defs><title>Asset 1</title><g id="Layer_2" data-name="Layer 2"><g id="Layer_1-2" data-name="Layer 1"><circle cx="69" cy="69" r="69"/><path class="cls-1" d="M84.16,54.21V39.06a2.54,2.54,0,0,0-2.54-2.55h-36a2.55,2.55,0,0,0-2.54,2.55V98a2.56,2.56,0,0,0,2.54,2.55h47.6A2.55,2.55,0,0,0,95.76,98V67.4A13.32,13.32,0,0,1,84.16,54.21ZM81.87,82.7H73.94v7.81h-9V82.7H57V73.82H64.9V66h9v7.81h7.93Zm13.89-40V63.34a9.31,9.31,0,0,1-7.6-9.13V39.65h4.58a3,3,0,0,1,3,3v.07Z"/></g></g></svg>