<svg width="59" height="59" viewBox="0 0 59 59" fill="none" xmlns="http://www.w3.org/2000/svg">
<rect width="59" height="59" rx="29.5" fill="white"/>
<path d="M40.5 12.75H34.6667C34.6667 10.1301 32.574 8 30 8C27.426 8 25.3333 10.1301 25.3333 12.75H19.5C17.5677 12.75 16 14.3457 16 16.3125V42.4375C16 44.4043 17.5677 46 19.5 46H40.5C42.4323 46 44 44.4043 44 42.4375V16.3125C44 14.3457 42.4323 12.75 40.5 12.75ZM30 10.9688C30.9698 10.9688 31.75 11.7629 31.75 12.75C31.75 13.7371 30.9698 14.5313 30 14.5313C29.0302 14.5313 28.25 13.7371 28.25 12.75C28.25 11.7629 29.0302 10.9688 30 10.9688ZM37 33.5312C37 33.8578 36.7375 34.125 36.4167 34.125H32.3333V38.2812C32.3333 38.6078 32.0708 38.875 31.75 38.875H28.25C27.9292 38.875 27.6667 38.6078 27.6667 38.2812V34.125H23.5833C23.2625 34.125 23 33.8578 23 33.5312V29.9687C23 29.6422 23.2625 29.375 23.5833 29.375H27.6667V25.2188C27.6667 24.8922 27.9292 24.625 28.25 24.625H31.75C32.0708 24.625 32.3333 24.8922 32.3333 25.2188V29.375H36.4167C36.7375 29.375 37 29.6422 37 29.9687V33.5312ZM37 19.2812C37 19.6078 36.7375 19.875 36.4167 19.875H23.5833C23.2625 19.875 23 19.6078 23 19.2812V18.0937C23 17.7672 23.2625 17.5 23.5833 17.5H36.4167C36.7375 17.5 37 17.7672 37 18.0937V19.2812Z" fill="url(#paint0_linear)"/>
<defs>
<linearGradient id="paint0_linear" x1="30" y1="8" x2="30" y2="46" gradientUnits="userSpaceOnUse">
<stop stop-color="#F2C94C"/>
<stop offset="1" stop-color="#F2994A"/>
</linearGradient>
</defs>
</svg>

