<svg xmlns="http://www.w3.org/2000/svg" viewBox="0 0 638.11 879.2"><title>Asset 2</title><g id="Layer_2" data-name="Layer 2"><g id="Layer_2-2" data-name="Layer 2"><path d="M362.9,742.11l-.9-.45.6-1.39c4.94-11.64,10.29-23.12,14.74-34.94,15.6-41.4,23.82-84.34,26-128.49,1.63-32.77-.85-65.26-6.4-97.55a130.36,130.36,0,0,1,4.4-61.73c10.22-32.83,29.95-59.62,53.69-83.75,18.22-18.52,38.59-34.53,59.94-49.25,39-26.91,78.26-53.55,117.3-80.46a13,13,0,0,0,5-6.88,33.13,33.13,0,0,0,.49-12C636,172,631,159.68,625.51,147.64c-7.87-17.18-16.83-33.74-29.83-47.71C588,91.64,581.35,88,571.78,94.55a11.22,11.22,0,0,1-1.94.83c-39.08,17-78,34.22-118.41,48-12,4.09-24,8.4-37.06,6.41-12.56-1.92-24.43-5.74-32-16.6-3.33-4.77-6.93-6.33-12.19-6.36-14.68-.08-28.78,3-42.52,7.83-15.09,5.29-29.68,11.64-40.92,23.57-7.33,7.79-10.17,16.7-5.49,27.09a103.64,103.64,0,0,1,4,10.65c2.38,7.35.81,13.42-5.4,17.95-4.27,3.12-9.36,5.07-13.87,7.88-7.61,4.73-15.65,9-22.45,14.74-13.94,11.77-23.32,27.29-32.76,42.67-7.33,11.92-13.42,24.78-24.63,33.88,4.8,4.45,9.54,8.63,14,13.06,23.64,23.39,40.55,51.38,54.91,81,17.8,36.72,30.28,75.32,39.75,114.93,1.42,5.9,2.6,11.86,3.89,17.79a11.64,11.64,0,0,1-2.69-4.84c-9.28-26.36-18-52.92-28-79-11.69-30.69-26.16-60.09-44.74-87.3-14.38-21.06-30.92-40.11-51.89-55-7.21-5.11-15.08-7.42-23.89-6.19-17.75,2.48-32.49,11.35-46.2,22.18-15.18,12-28,26.3-39.54,41.7-21.65,28.79-36.76,60.8-46.25,95.47a69.22,69.22,0,0,0-2.85,18.22c.1,20.18,4.68,39.71,11.16,58.63,7.73,22.59,15.27,45.39,25.21,67C67.13,650,93,684.42,120.32,717.62a793.84,793.84,0,0,0,62.82,67.77c25.61,24.63,52.5,47.67,82.47,66.91,14.85,9.53,30.32,18,47.45,22.61,32.59,8.79,63.58,3.69,93.16-11.83,26.42-13.86,48.34-33.36,68.18-55.29,31.18-34.47,55.92-73.34,77.32-114.41a630.4,630.4,0,0,0,35.54-81c12.24-34.58,21.68-69.81,24.34-106.58,1.82-25.05-2.62-49-12.25-72.13-1.65-4-3.64-7.77-5.35-11.36-7.72,2.85-14.77,6.25-22.22,8-15.42,3.69-30.94,7.24-46.61,9.54-22.88,3.35-45.85,2.8-68.23-3.74C439.4,431,425.52,421.54,421.57,402c0-.19-.41-.32-.94-.7-1.63,3.62-3.33,7.12-4.79,10.71-9.42,23.19-11,47-7.31,71.71A412.14,412.14,0,0,1,412,580.21a402.7,402.7,0,0,1-37,138.6C371.28,726.72,367,734.35,362.9,742.11ZM382,63.4c-4.1.43-5.27-1.46-5.57-4.83-.78-8.83-1.82-17.63-2.76-26.45-1.14-10.59-2.27-21.19-3.45-32.12L312.31,2.14c-.73,18.65-1.44,37-2.16,55.32a25.88,25.88,0,0,0-3.84.5c-3.58,1-5.64,0-6.95-3.7s-3.31-6.82-5-10.22L276.91,9,223.27,31c4.65,14.22,9.23,28.2,13.83,42.27-5.7,2.48-11,5-16.51,7.13-15,5.73-26.2,16.2-35.58,28.81-16.79,22.59-26.61,48.09-31.14,75.72-2.93,17.85-1.9,35.64.94,53.4,3.52,22,9.05,43.46,19.33,63.44,2.5,4.87,5.15,5.53,9,1.58a64.64,64.64,0,0,0,7.83-9.91c8.63-13.35,16.7-27.07,25.66-40.2,11.15-16.35,24.72-30.31,43-38.95,3.93-1.86,8-3.45,11.72-5.71,6.51-4,6.7-6.22,3.95-13.27-2.28-5.84-4.66-11.93-5.28-18.08-1.36-13.53,6.13-23.29,16-31.33,14.31-11.71,31.12-18.35,48.73-23.24,12.69-3.52,25.53-5.9,38.75-5,5.71.39,11.32,1.46,14.43,7.18,3,5.43,7.52,9,13.05,11.46a47,47,0,0,0,32.57,2.82c13.13-3.59,26.06-7.9,39-12,2.84-.91,5.51-2.34,8.59-3.67-11.06-11.55-22.28-22-35-30.66-2.12-1.45-2.64-2.8-1.94-5.18q6.27-21.22,12.34-42.51c1.58-5.48,3-11,4.58-16.76L406.76,8.5ZM161.76,298.87a13.68,13.68,0,0,0-.47-2.41c-6.09-13.08-10-26.85-12.84-40.93-4.2-21-7.31-42.19-4.74-63.72,4.55-38.14,17.77-72.48,44.56-100.82a6.94,6.94,0,0,0,1.45-3.76c.88-7.27,1.54-14.56,2.43-21.82.95-7.79-.27-11.51-7.6-14.48a110.46,110.46,0,0,0-23.78-6.73c-17.59-2.82-35.38-2.63-53.08-.77C97.5,44.5,87.28,46,78,51c-3.9,2.09-6.8,5-7.55,9.55C69,69.8,67.71,79.15,65.88,88.38c-5.49,27.71-11,55.43-16.91,83a522,522,0,0,1-21.65,72.66c-11.45,30.7-22,61.7-26,94.51-3.1,25.5-1,50.3,8.92,74.16,2.23,5.38,5.1,10.5,8,16.49,1-1.86,1.49-2.81,2-3.77,5.67-11.31,10.82-22.9,17.09-33.86,14.56-25.47,32.6-48.23,55.34-67,10.78-8.9,22.35-16.62,35.45-21.74A64.93,64.93,0,0,1,161.76,298.87Zm385.4-19.36c-12,8.2-24.06,16-35.71,24.37-24.92,17.84-48.14,37.63-67.41,61.64-3.9,4.87-7.75,10.19-10,16-6.49,17-3.68,32.27,14.17,41a89.28,89.28,0,0,0,24.36,7.72c22.43,3.75,44.88,2.19,67.21-1.74,16.54-2.92,32.66-7.22,48-14.16,1.54-.7,3.52-2.39,3.71-3.83a156.52,156.52,0,0,0,1.62-20.6,153.6,153.6,0,0,0-12.37-58.64A164.73,164.73,0,0,0,547.16,279.51Z"/></g></g></svg>