<svg id="Layer_1" data-name="Layer 1" xmlns="http://www.w3.org/2000/svg" xmlns:xlink="http://www.w3.org/1999/xlink" viewBox="0 0 48 48"><defs><style>.cls-1{fill:#fff;}.cls-2,.cls-3{fill:none;stroke-linecap:round;stroke-linejoin:round;stroke-width:2px;}.cls-2{stroke:url(#linear-gradient);}.cls-3{stroke:url(#linear-gradient-2);}</style><linearGradient id="linear-gradient" x1="545.3" y1="546.86" x2="545.3" y2="522.39" gradientTransform="matrix(1, 0, 0, -1, 262, 856.5)" gradientUnits="userSpaceOnUse"><stop offset="0" stop-color="#333"/><stop offset="1" stop-color="#eb5757"/></linearGradient><linearGradient id="linear-gradient-2" x1="545.3" y1="534.66" x2="545.3" y2="522.39" xlink:href="#linear-gradient"/></defs><path class="cls-1" d="M807.06,298.12h0a24,24,0,0,1,24,24h0a24,24,0,0,1-24,24h0a24,24,0,0,1-24-24h0A24,24,0,0,1,807.06,298.12Z" transform="translate(-783.06 -298.12)"/><path class="cls-2" d="M796.32,319.39a2.37,2.37,0,0,1,.93-1.89l8.58-6.68a2.4,2.4,0,0,1,2.94,0l8.58,6.68a2.37,2.37,0,0,1,.93,1.89v12.25a2.44,2.44,0,0,1-2.44,2.44H798.76a2.44,2.44,0,0,1-2.44-2.44Z" transform="translate(-783.06 -298.12)"/><path class="cls-3" d="M803.64,334.08v-9.8a2.39,2.39,0,0,1,2.4-2.4h2.52a2.4,2.4,0,0,1,2.4,2.4v9.8" transform="translate(-783.06 -298.12)"/></svg>