<svg id="Layer_1" data-name="Layer 1" xmlns="http://www.w3.org/2000/svg" xmlns:xlink="http://www.w3.org/1999/xlink" viewBox="0 0 48 48"><defs><style>.cls-1{fill:url(#radial-gradient);}.cls-2{fill:none;stroke:#fff;stroke-linecap:round;stroke-linejoin:round;stroke-width:2px;}</style><radialGradient id="radial-gradient" cx="11.12" cy="784.27" r="1" gradientTransform="matrix(0, 24, 24, 0, -18139, 117.5)" gradientUnits="userSpaceOnUse"><stop offset="0" stop-color="#eb5757"/><stop offset="1" stop-color="#eb5757" stop-opacity="0.6"/></radialGradient></defs><path class="cls-1" d="M683.39,360.4h0a24,24,0,0,1,24,24h0a24,24,0,0,1-24,24h0a24,24,0,0,1-24-24h0A24,24,0,0,1,683.39,360.4Z" transform="translate(-659.39 -360.4)"/><path class="cls-2" d="M672.39,383.39a5,5,0,0,1,1.93-3.95l6-4.65a5,5,0,0,1,6.14,0l6,4.65a5,5,0,0,1,1.93,3.95v11a2.44,2.44,0,0,1-2.44,2.44H674.83a2.44,2.44,0,0,1-2.44-2.44Z" transform="translate(-659.39 -360.4)"/><path class="cls-2" d="M679.71,396.81v-8.54a3.66,3.66,0,0,1,3.66-3.66h0a3.66,3.66,0,0,1,3.66,3.66v8.54" transform="translate(-659.39 -360.4)"/></svg>