<svg width="59" height="59" viewBox="0 0 59 59" fill="none" xmlns="http://www.w3.org/2000/svg">
<rect width="59" height="59" rx="29.5" fill="white"/>
<path d="M31.8345 41.7579C31.822 41.7495 31.8094 41.7453 31.7968 41.737C31.8052 41.7162 31.8136 41.6995 31.822 41.6786C32.0277 41.1949 32.2544 40.7153 32.4392 40.2232C33.0942 38.4968 33.4385 36.7077 33.5309 34.8645C33.5981 33.4967 33.4931 32.1414 33.2622 30.7944C33.111 29.9228 33.1824 29.0638 33.4469 28.2214C33.8752 26.8535 34.7066 25.7359 35.7017 24.7267C36.4659 23.9553 37.3225 23.288 38.2169 22.6708C39.8545 21.549 41.5046 20.4356 43.1422 19.3138C43.2346 19.2513 43.327 19.1345 43.3522 19.0261C43.3899 18.8676 43.3941 18.6883 43.3731 18.5256C43.2976 17.9752 43.0876 17.4622 42.8567 16.9618C42.525 16.2445 42.1513 15.5565 41.6054 14.9726C41.2821 14.6265 41.005 14.4764 40.6019 14.7474C40.5767 14.7641 40.5473 14.7683 40.5221 14.7808C38.8803 15.4897 37.2469 16.207 35.5506 16.7825C35.0467 16.9535 34.5428 17.1328 33.9928 17.0494C33.4637 16.9702 32.9683 16.8117 32.6491 16.3571C32.5106 16.157 32.3594 16.0944 32.1369 16.0902C31.5196 16.0861 30.9276 16.2154 30.3523 16.4155C29.7183 16.6365 29.1053 16.8993 28.635 17.3997C28.3285 17.725 28.2067 18.0961 28.404 18.5298C28.4712 18.6758 28.5258 18.8217 28.5762 18.9719C28.677 19.2805 28.6098 19.5307 28.3495 19.7225C28.1689 19.8518 27.9548 19.9352 27.7658 20.0519C27.4467 20.2479 27.1066 20.4273 26.8252 20.665C26.2416 21.157 25.8469 21.8034 25.448 22.4456C25.1415 22.9419 24.8854 23.4799 24.4151 23.8593C24.6166 24.047 24.814 24.218 25.0029 24.4056C25.9939 25.3815 26.7035 26.5491 27.3081 27.7835C28.0555 29.314 28.5804 30.9237 28.9751 32.5751C29.0339 32.8211 29.0843 33.0713 29.1388 33.3174C29.0759 33.2548 29.0507 33.1881 29.0255 33.1172C28.635 32.0163 28.2697 30.9112 27.8498 29.8227C27.3585 28.5425 26.7497 27.3164 25.9729 26.1821C25.3682 25.3022 24.6754 24.5099 23.7936 23.8885C23.4913 23.6759 23.1596 23.5799 22.7901 23.63C22.0427 23.7342 21.4255 24.1054 20.8502 24.5558C20.212 25.0562 19.6745 25.6525 19.1916 26.2947C18.2847 27.4958 17.6464 28.8302 17.2517 30.2773C17.1846 30.5233 17.13 30.7819 17.13 31.0363C17.1342 31.8786 17.3273 32.6918 17.6002 33.48C17.9236 34.4225 18.2427 35.3733 18.6584 36.274C19.4142 37.9088 20.5017 39.3433 21.648 40.7278C22.471 41.7203 23.3528 42.6628 24.2849 43.5552C25.3598 44.5811 26.4893 45.5444 27.749 46.3451C28.3704 46.7412 29.0213 47.0957 29.7393 47.2875C31.1081 47.6545 32.4098 47.4418 33.6527 46.7955C34.7612 46.2158 35.6807 45.4026 36.5163 44.4893C37.8264 43.0506 38.8635 41.4326 39.7621 39.7186C40.3373 38.626 40.8412 37.5001 41.2527 36.3408C41.765 34.8979 42.1639 33.43 42.273 31.8953C42.3486 30.8486 42.1639 29.8519 41.7608 28.8886C41.6894 28.7218 41.6096 28.5633 41.5382 28.4132C41.2149 28.5341 40.9168 28.6759 40.6061 28.7468C39.9594 28.9011 39.3086 29.0471 38.6494 29.143C37.6878 29.2848 36.7221 29.2598 35.7857 28.9887C35.0509 28.776 34.4673 28.3798 34.2993 27.5666C34.2993 27.5583 34.2825 27.5541 34.2615 27.5375C34.1943 27.6876 34.123 27.8335 34.06 27.9837C33.6653 28.9512 33.5981 29.9437 33.7534 30.9737C33.955 32.3082 34.0138 33.6468 33.8962 34.998C33.7241 37.0205 33.2118 38.9471 32.3426 40.7779C32.1873 41.1156 32.0067 41.4367 31.8345 41.7579ZM32.6365 13.4547C32.4644 13.4714 32.414 13.3921 32.4014 13.2545C32.3678 12.8875 32.3258 12.5206 32.2838 12.1536C32.2376 11.7115 32.1873 11.2695 32.1411 10.8149C31.3223 10.8441 30.5245 10.8733 29.7057 10.9025C29.6763 11.6823 29.6469 12.4455 29.6133 13.2086C29.5461 13.217 29.4958 13.217 29.4538 13.2295C29.3026 13.2754 29.2186 13.2295 29.164 13.0752C29.1095 12.9251 29.0255 12.7916 28.9541 12.6498C28.7106 12.1661 28.4712 11.6865 28.2193 11.1861C27.4635 11.4947 26.7203 11.7991 25.9687 12.1077C26.166 12.6999 26.355 13.2837 26.5481 13.8717C26.3088 13.976 26.0862 14.0802 25.8553 14.1678C25.2255 14.4055 24.7552 14.8434 24.3605 15.3688C23.6551 16.3113 23.2436 17.3747 23.0546 18.5256C22.9329 19.2679 22.9748 20.0102 23.0924 20.7525C23.2394 21.67 23.4745 22.5666 23.9028 23.3964C24.0078 23.6008 24.1212 23.6258 24.2807 23.4632C24.4025 23.3381 24.5158 23.1963 24.6082 23.0503C24.9693 22.4915 25.3094 21.9202 25.6873 21.3739C26.1576 20.6942 26.7245 20.1103 27.4929 19.7475C27.6566 19.6683 27.8288 19.6057 27.9841 19.5098C28.2571 19.343 28.2655 19.2513 28.1521 18.9552C28.0555 18.7133 27.9548 18.4589 27.9296 18.2004C27.8708 17.6374 28.1857 17.2287 28.6014 16.8951C29.2018 16.4072 29.9072 16.132 30.6463 15.9276C31.1795 15.7817 31.717 15.6816 32.2754 15.7191C32.5148 15.7358 32.7499 15.7817 32.8801 16.0194C33.006 16.2445 33.195 16.3947 33.4301 16.4989C33.871 16.6991 34.3329 16.7408 34.799 16.6157C35.349 16.4656 35.8949 16.2862 36.4366 16.1153C36.5541 16.0777 36.6675 16.0194 36.7977 15.961C36.3316 15.4814 35.8613 15.0435 35.328 14.6807C35.2399 14.6223 35.2189 14.564 35.2483 14.4639C35.4246 13.8717 35.5968 13.2837 35.7647 12.6915C35.8319 12.4622 35.8907 12.2328 35.9579 11.9909C35.1853 11.7115 34.4337 11.4363 33.6779 11.1611C33.3252 11.9367 32.985 12.6957 32.6365 13.4547ZM23.3905 23.2755C23.3779 23.2213 23.3821 23.1963 23.3695 23.1754C23.1134 22.6291 22.9497 22.0578 22.8321 21.4698C22.6557 20.5941 22.5256 19.71 22.6347 18.8134C22.8279 17.2245 23.3821 15.79 24.5075 14.6098C24.5452 14.5723 24.562 14.5056 24.5662 14.4514C24.604 14.1469 24.6292 13.8425 24.667 13.5423C24.7048 13.217 24.6544 13.0627 24.3479 12.9376C24.0288 12.8083 23.6887 12.7124 23.3486 12.6582C22.6095 12.5414 21.8621 12.5497 21.1189 12.6248C20.6906 12.6665 20.2624 12.7291 19.8719 12.9376C19.7081 13.0251 19.5863 13.1461 19.5569 13.3379C19.494 13.7257 19.4394 14.1136 19.3638 14.5014C19.1328 15.6565 18.9019 16.8117 18.6542 17.9627C18.4316 18.9969 18.1167 20.0019 17.743 20.9944C17.2643 22.2747 16.8192 23.5674 16.6513 24.9353C16.5211 25.9987 16.6093 27.0329 17.025 28.0295C17.1174 28.2547 17.2391 28.4674 17.3609 28.7176C17.4029 28.6384 17.4239 28.6009 17.4449 28.5592C17.6842 28.0879 17.8984 27.6042 18.1629 27.1455C18.7759 26.0821 19.5317 25.1354 20.4849 24.3514C20.9384 23.9803 21.4255 23.6592 21.9755 23.4465C22.4248 23.2672 22.8867 23.2004 23.3905 23.2755ZM39.5731 22.4665C39.0693 22.8084 38.5612 23.1337 38.0741 23.484C37.0286 24.2263 36.0545 25.052 35.2441 26.0529C35.0803 26.2572 34.9165 26.4782 34.8242 26.7201C34.5512 27.429 34.6688 28.0671 35.4204 28.4299C35.7395 28.5842 36.0922 28.6926 36.445 28.751C37.3855 28.9053 38.3303 28.8427 39.2666 28.6801C39.9594 28.5592 40.6397 28.3798 41.2821 28.0879C41.3451 28.0587 41.4291 27.9878 41.4375 27.9295C41.4752 27.6459 41.5088 27.3581 41.5046 27.0704C41.5004 26.2238 41.3157 25.4065 40.984 24.6267C40.6481 23.8301 40.1988 23.117 39.5731 22.4665Z" fill="url(#paint0_linear)"/>
<path d="M31.8352 41.7578C32.0032 41.4325 32.1879 41.1156 32.3433 40.7861C33.2124 38.9512 33.7205 37.0246 33.8969 35.0062C34.0144 33.6551 33.9514 32.3165 33.7541 30.982C33.5987 29.9519 33.6659 28.9594 34.0606 27.992C34.1236 27.8418 34.195 27.6959 34.2622 27.5457C34.2832 27.5624 34.3 27.5666 34.3 27.5749C34.4637 28.3881 35.0474 28.7801 35.7864 28.997C36.7269 29.268 37.6885 29.2931 38.65 29.1513C39.3093 29.0554 39.9601 28.9094 40.6067 28.7551C40.9174 28.68 41.2156 28.5382 41.5389 28.4215C41.6103 28.5716 41.6942 28.7301 41.7614 28.8969C42.1645 29.8602 42.3535 30.8611 42.2737 31.9036C42.1603 33.4382 41.7656 34.9062 41.2534 36.349C40.8377 37.5125 40.3338 38.6343 39.7627 39.7269C38.8642 41.4409 37.827 43.0589 36.517 44.4976C35.6856 45.4109 34.7618 46.2241 33.6533 46.8037C32.4104 47.4501 31.1088 47.6628 29.7399 47.2958C29.0219 47.104 28.3711 46.7495 27.7497 46.3534C26.49 45.5527 25.3605 44.5894 24.2856 43.5635C23.3534 42.6711 22.4716 41.7286 21.6486 40.7361C20.5023 39.3516 19.4148 37.917 18.659 36.2823C18.2433 35.3816 17.9242 34.4307 17.6009 33.4883C17.328 32.7001 17.1348 31.8828 17.1306 31.0445C17.1306 30.7902 17.181 30.5316 17.2524 30.2856C17.6513 28.8385 18.2853 27.504 19.1923 26.303C19.6794 25.6608 20.2168 25.0645 20.8508 24.564C21.4261 24.1137 22.0475 23.7425 22.7907 23.6383C23.1602 23.5882 23.492 23.6841 23.7943 23.8968C24.6761 24.5182 25.3689 25.3105 25.9735 26.1904C26.7545 27.3247 27.3592 28.5508 27.8504 29.831C28.2661 30.9194 28.6356 32.0287 29.0261 33.1255C29.0513 33.1964 29.0765 33.2673 29.1395 33.3256C29.0849 33.0796 29.0345 32.8294 28.9757 32.5833C28.5768 30.9319 28.052 29.3222 27.3088 27.7918C26.7041 26.5532 25.9945 25.3897 25.0036 24.4139C24.8146 24.2304 24.6173 24.0553 24.4157 23.8676C24.886 23.4881 25.1421 22.9502 25.4487 22.4539C25.8434 21.8117 26.2381 21.1653 26.8259 20.6732C27.1114 20.4355 27.4473 20.2562 27.7665 20.0602C27.9554 19.9435 28.1695 19.8601 28.3501 19.7308C28.6104 19.5431 28.6776 19.2887 28.5768 18.9801C28.5265 18.83 28.4719 18.6799 28.4047 18.5381C28.2073 18.1044 28.3291 17.7333 28.6356 17.408C29.1059 16.9117 29.7189 16.6448 30.353 16.4238C30.9282 16.2236 31.5203 16.0944 32.1375 16.0985C32.3601 16.0985 32.5112 16.1653 32.6498 16.3654C32.9689 16.82 33.4686 16.9784 33.9934 17.0577C34.5435 17.1411 35.0474 16.9618 35.5512 16.7908C37.2476 16.2153 38.881 15.498 40.5227 14.7891C40.5479 14.7766 40.5815 14.7724 40.6025 14.7557C41.0056 14.4847 41.2827 14.6348 41.6061 14.9809C42.1519 15.5647 42.5298 16.2528 42.8573 16.9701C43.0883 17.4705 43.2982 17.9835 43.3738 18.5339C43.3948 18.6966 43.3906 18.8759 43.3528 19.0344C43.3276 19.1428 43.2352 19.2554 43.1429 19.3221C41.5053 20.4439 39.8551 21.5573 38.2175 22.6791C37.319 23.2921 36.4666 23.9594 35.7024 24.735C34.7073 25.74 33.8759 26.8577 33.4476 28.2297C33.183 29.072 33.1117 29.9311 33.2628 30.8027C33.4938 32.1496 33.5987 33.505 33.5316 34.8728C33.4392 36.716 33.0949 38.505 32.4398 40.2315C32.2509 40.7236 32.0283 41.2032 31.8226 41.6869C31.8142 41.7078 31.8058 41.7244 31.7974 41.7453C31.81 41.7453 31.8226 41.7536 31.8352 41.7578ZM29.4082 34.7435C29.3284 34.5433 29.2403 34.3473 29.1689 34.1472C28.8834 33.3048 28.6104 32.4541 28.3207 31.6117C27.8168 30.1438 27.2248 28.7134 26.4648 27.3581C25.8266 26.2238 25.0666 25.1854 24.0546 24.343C23.6431 24.0011 23.2148 23.7133 22.6438 23.8676C22.3877 23.9385 22.1357 24.0219 21.8964 24.1345C21.2371 24.4473 20.6871 24.9143 20.1874 25.4356C18.9949 26.6825 18.1593 28.1337 17.6135 29.7643C17.3909 30.4315 17.2566 31.0904 17.3825 31.7993C17.6387 33.213 18.109 34.5559 18.6716 35.8653C19.2469 37.1998 20.0699 38.3924 20.9474 39.5434C21.9762 40.8946 23.1057 42.154 24.3317 43.3341C25.6082 44.5602 26.9477 45.7111 28.5097 46.5786C29.7231 47.2541 30.9954 47.4793 32.3517 47.1123C33.435 46.8163 34.3545 46.2324 35.1943 45.5151C36.454 44.4351 37.4617 43.1423 38.3561 41.7578C39.1119 40.586 39.7669 39.3599 40.338 38.088C40.8713 36.8953 41.3289 35.6776 41.6438 34.4099C41.9084 33.3548 42.1225 32.2914 42.0805 31.1947C42.0469 30.3148 41.8244 29.4849 41.4339 28.6925C41.4045 28.7009 41.3793 28.7051 41.3583 28.7134C39.8005 29.3222 38.1965 29.5808 36.5296 29.3681C35.6142 29.2514 34.7534 29.0011 34.2496 28.1254C34.2328 28.1337 34.2202 28.1379 34.216 28.1504C33.9514 28.8218 33.8087 29.5141 33.8675 30.2314C33.9388 31.0779 34.0732 31.9245 34.1194 32.771C34.2286 34.7977 33.9892 36.7911 33.3678 38.7302C32.9185 40.1356 32.3223 41.4701 31.4741 42.6878C31.134 43.1757 30.7099 43.5843 30.2732 43.9847C30.2816 43.9388 30.3026 43.8971 30.3278 43.8596C30.6133 43.4009 30.9198 42.9546 31.1844 42.4834C31.936 41.1531 32.4818 39.7394 32.8429 38.2548C33.1453 37.0121 33.3048 35.7527 33.3426 34.4725C33.3804 33.2172 33.2376 31.9787 33.0487 30.7401C32.8555 29.4682 33.0991 28.263 33.6827 27.1246C34.3461 25.8193 35.2993 24.7392 36.4288 23.8217C37.319 23.1003 38.2637 22.4414 39.2043 21.7825C40.4136 20.936 41.6313 20.1061 42.8657 19.3012C43.189 19.0927 43.2394 18.855 43.1806 18.5298C43.1723 18.4797 43.1597 18.4255 43.1471 18.3755C42.8783 17.3496 42.4164 16.4071 41.7992 15.5439C41.6355 15.3187 41.4255 15.1227 41.224 14.9267C41.1148 14.8224 40.9762 14.8099 40.8293 14.8808C40.6277 14.9767 40.422 15.0643 40.2162 15.1519C38.6542 15.8316 37.088 16.503 35.4673 17.0452C34.9424 17.2203 34.4175 17.3579 33.8507 17.2495C33.3048 17.1453 32.8135 16.9493 32.4776 16.4947C32.3643 16.3404 32.2425 16.2987 32.0787 16.3029C32.0032 16.3029 31.9234 16.307 31.8478 16.3154C31.2515 16.3738 30.6721 16.5197 30.1178 16.7407C29.635 16.9326 29.1689 17.1661 28.7952 17.5456C28.4803 17.8625 28.4341 18.167 28.6146 18.5715C28.6776 18.7174 28.7364 18.8634 28.7784 19.0177C28.8624 19.3304 28.8036 19.6307 28.5475 19.835C28.3333 20.006 28.0898 20.1436 27.8378 20.2562C27.2626 20.5148 26.7923 20.9026 26.4228 21.3989C26.0365 21.9243 25.6964 22.4831 25.3353 23.0252C25.1379 23.3213 24.9364 23.6132 24.7684 23.8593C24.9196 24.0344 25.0624 24.2137 25.2261 24.3806C26.1919 25.3647 26.8973 26.5199 27.4893 27.7459C28.136 29.0887 28.6272 30.4857 29.0009 31.9286C29.2487 32.8336 29.4922 33.7593 29.4082 34.7435Z" fill="url(#paint1_linear)"/>
<path d="M32.636 13.4544C32.9804 12.6913 33.3247 11.9365 33.6732 11.165C34.4332 11.4402 35.1848 11.7113 35.9532 11.9948C35.886 12.2367 35.8272 12.4661 35.76 12.6954C35.5879 13.2876 35.4157 13.8798 35.2436 14.4678C35.2142 14.5679 35.2352 14.6221 35.3233 14.6846C35.8566 15.0474 36.3269 15.4811 36.793 15.9649C36.6628 16.0191 36.5494 16.0816 36.4319 16.1192C35.886 16.2902 35.3443 16.4695 34.7943 16.6196C34.3324 16.7447 33.8705 16.6988 33.4254 16.5028C33.1945 16.3986 33.0014 16.2526 32.8754 16.0233C32.7452 15.7856 32.5101 15.7397 32.2707 15.723C31.7165 15.6855 31.1748 15.7856 30.6416 15.9315C29.9026 16.1359 29.1971 16.4111 28.5967 16.899C28.1852 17.2326 27.8703 17.6413 27.9249 18.2043C27.9501 18.4587 28.0508 18.713 28.1474 18.9591C28.265 19.2552 28.2566 19.3469 27.9795 19.5137C27.8241 19.6096 27.6519 19.6722 27.4882 19.7514C26.7198 20.1101 26.1529 20.6939 25.6827 21.3778C25.3048 21.9241 24.9688 22.4954 24.6035 23.0542C24.507 23.2002 24.3978 23.342 24.276 23.4671C24.1165 23.6339 24.0031 23.6047 23.8981 23.4004C23.4656 22.5663 23.2347 21.6739 23.0877 20.7564C22.9702 20.0141 22.924 19.2719 23.0499 18.5296C23.2389 17.3786 23.6546 16.3152 24.3558 15.3727C24.7505 14.8473 25.2166 14.4094 25.8506 14.1717C26.0815 14.0841 26.3041 13.9799 26.5434 13.8756C26.3503 13.2876 26.1571 12.7038 25.964 12.1116C26.7156 11.803 27.463 11.4986 28.2146 11.19C28.4623 11.6904 28.7059 12.17 28.9494 12.6537C29.0208 12.7955 29.1048 12.9331 29.1594 13.0791C29.2139 13.2334 29.3021 13.2793 29.4491 13.2334C29.4953 13.2209 29.5415 13.2209 29.6086 13.2125C29.638 12.4494 29.6674 11.6821 29.701 10.9064C30.5156 10.8772 31.3176 10.848 32.1364 10.8188C32.1868 11.2734 32.233 11.7154 32.2791 12.1575C32.3169 12.5245 32.3631 12.8914 32.3967 13.2584C32.4177 13.3919 32.4639 13.4711 32.636 13.4544ZM24.0955 23.3795C24.1878 23.2752 24.2508 23.221 24.2928 23.1543C24.6287 22.6372 24.9562 22.1118 25.2922 21.5947C25.9094 20.648 26.6484 19.839 27.7443 19.4136C28.0634 19.2885 28.0718 19.2385 27.9249 18.9299C27.7863 18.6338 27.6939 18.3252 27.7275 17.9958C27.7863 17.3911 28.1516 16.9782 28.6135 16.6363C29.151 16.2401 29.7556 15.9732 30.3896 15.7856C30.9733 15.6146 31.5695 15.477 32.1868 15.502C32.5773 15.5145 32.9216 15.6146 33.1147 15.9982C33.1483 16.0691 33.2197 16.1275 33.2869 16.1734C33.7026 16.457 34.1686 16.532 34.6557 16.4361C34.9203 16.3861 35.1848 16.3152 35.4451 16.2359C35.7768 16.1359 36.1001 16.0191 36.4571 15.9023C36.0414 15.477 35.6299 15.1058 35.1596 14.8139C35 14.718 34.9832 14.6262 35.0336 14.4636C35.252 13.738 35.4493 13.0082 35.6677 12.2868C35.7138 12.1408 35.6719 12.0949 35.5417 12.0491C35.2394 11.949 34.9412 11.8322 34.6431 11.7238C34.3576 11.6195 34.0721 11.5194 33.7781 11.4152C33.4296 12.1908 33.0853 12.9457 32.741 13.7005C32.6067 13.6671 32.4933 13.6337 32.3757 13.6171C32.2665 13.6004 32.2288 13.5503 32.2204 13.4461C32.1742 12.9665 32.128 12.4869 32.0734 12.0115C32.0398 11.6821 31.9936 11.3526 31.9558 11.0107C31.263 11.0357 30.5912 11.0649 29.9026 11.0899C29.8732 11.8656 29.8438 12.6245 29.8144 13.396C29.6338 13.4127 29.4659 13.4127 29.3063 13.4419C29.1761 13.4669 29.1132 13.4169 29.0628 13.3085C28.8612 12.8956 28.6597 12.4869 28.4539 12.0782C28.349 11.8656 28.2356 11.6529 28.1264 11.436C27.4798 11.6988 26.8541 11.9531 26.2201 12.2117C26.4175 12.8122 26.6064 13.396 26.7996 13.984C26.472 14.1216 26.1571 14.2509 25.8464 14.3927C25.5525 14.5262 25.2628 14.6721 25.0318 14.9098C23.8267 16.1525 23.2515 17.658 23.1927 19.3594C23.1591 20.3519 23.3481 21.3236 23.6546 22.2661C23.7722 22.633 23.9359 22.9833 24.0955 23.3795Z" fill="url(#paint2_linear)"/>
<path d="M23.3903 23.2756C22.8906 23.2047 22.4245 23.2672 21.9794 23.4424C21.4294 23.6551 20.9423 23.9762 20.4888 24.3473C19.5357 25.1313 18.7756 26.0779 18.1668 27.1413C17.9023 27.6001 17.6881 28.0838 17.4488 28.555C17.4278 28.5967 17.4068 28.6343 17.3648 28.7135C17.243 28.4633 17.1213 28.2506 17.0289 28.0254C16.6132 27.0287 16.525 25.9945 16.6552 24.9311C16.8232 23.5633 17.2682 22.2705 17.7469 20.9903C18.1206 19.9978 18.4313 18.9928 18.6581 17.9586C18.9058 16.8076 19.1368 15.6524 19.3677 14.4973C19.4433 14.1136 19.4979 13.7216 19.5608 13.3338C19.5902 13.142 19.7162 13.021 19.8758 12.9335C20.2663 12.7249 20.6946 12.6624 21.1228 12.6207C21.866 12.5415 22.6135 12.5331 23.3525 12.6541C23.6926 12.7083 24.0327 12.8042 24.3518 12.9335C24.6583 13.0586 24.7087 13.2129 24.6709 13.5381C24.6331 13.8426 24.6079 14.147 24.5701 14.4472C24.5617 14.5015 24.545 14.5682 24.5114 14.6057C23.3861 15.7859 22.8318 17.2204 22.6386 18.8093C22.5295 19.7059 22.6596 20.59 22.836 21.4657C22.9536 22.0537 23.1173 22.6292 23.3735 23.1713C23.3777 23.1922 23.3777 23.2172 23.3903 23.2756ZM23.0795 23.042C23.0627 22.9795 23.0459 22.9336 23.0375 22.8877C22.8738 22.2831 22.6764 21.6867 22.5589 21.0695C22.3195 19.8602 22.3363 18.655 22.689 17.4623C23.0123 16.378 23.4952 15.3855 24.2804 14.5515C24.335 14.4931 24.3644 14.4014 24.377 14.318C24.419 14.0552 24.44 13.7925 24.4778 13.534C24.5114 13.2963 24.461 13.1795 24.2384 13.0836C24.0873 13.0169 23.9277 12.971 23.7682 12.9335C22.9704 12.7458 22.16 12.7291 21.3538 12.8042C20.9339 12.8417 20.5182 12.946 20.1067 13.0461C19.9052 13.0961 19.754 13.2212 19.7498 13.4672C19.7456 13.6299 19.7036 13.7925 19.6742 13.9552C19.4097 15.2813 19.1536 16.6116 18.8722 17.9377C18.6539 18.9552 18.36 19.9477 17.9905 20.9236C17.5538 22.0537 17.1549 23.1963 16.9365 24.389C16.756 25.369 16.7266 26.349 16.9953 27.3207C17.0835 27.6293 17.2095 27.9295 17.3144 28.2173C17.7301 27.525 18.108 26.8411 18.5363 26.1947C19.1494 25.2689 19.9052 24.4724 20.8289 23.8427C21.5007 23.3882 22.2146 23.0337 23.0795 23.042Z" fill="url(#paint3_linear)"/>
<path d="M39.5728 22.4668C40.2027 23.1132 40.652 23.8305 40.9837 24.6228C41.3112 25.4068 41.4959 26.22 41.5043 27.0665C41.5043 27.3543 41.475 27.642 41.4372 27.9256C41.4288 27.984 41.3448 28.0549 41.2818 28.0841C40.6394 28.3718 39.9591 28.5511 39.2663 28.6762C38.33 28.8389 37.3852 28.9056 36.4447 28.7471C36.0962 28.6887 35.7392 28.5803 35.4201 28.426C34.6727 28.059 34.551 27.4252 34.8239 26.7162C34.9163 26.4744 35.0758 26.2533 35.2438 26.049C36.0542 25.0482 37.0283 24.2225 38.0738 23.4802C38.5609 23.134 39.0648 22.8088 39.5728 22.4668ZM39.5351 22.7253C39.0438 23.0631 38.5525 23.3884 38.0738 23.7304C37.1165 24.4143 36.2347 25.1858 35.4705 26.0824C35.1724 26.4327 34.9163 26.7955 34.8995 27.2792C34.8869 27.6504 35.0044 27.9631 35.3278 28.1466C35.5965 28.3009 35.8862 28.4344 36.1843 28.5094C36.8562 28.6846 37.5406 28.6762 38.2292 28.6178C39.2243 28.5386 40.1901 28.3343 41.1096 27.9423C41.1684 27.9173 41.244 27.8464 41.2482 27.788C41.2734 27.4377 41.3196 27.0832 41.2944 26.7371C41.2188 25.7946 40.9501 24.9064 40.4966 24.0765C40.2363 23.5928 39.9298 23.1424 39.5351 22.7253Z" fill="url(#paint4_linear)"/>
<path d="M29.4073 34.744C29.4913 33.7599 29.2519 32.8341 29.0126 31.9083C28.6389 30.4654 28.1476 29.0684 27.501 27.7256C26.9089 26.4995 26.2035 25.3444 25.2378 24.3602C25.0782 24.1976 24.9354 24.0141 24.7801 23.8389C24.948 23.5929 25.1496 23.301 25.3469 23.0049C25.708 22.4628 26.0482 21.904 26.4345 21.3785C26.7998 20.8823 27.27 20.4903 27.8495 20.2359C28.1014 20.1233 28.345 19.9815 28.5591 19.8147C28.8194 19.6104 28.874 19.3143 28.79 18.9973C28.7481 18.843 28.6935 18.6971 28.6263 18.5511C28.4415 18.1424 28.4919 17.8422 28.8068 17.5253C29.1805 17.1458 29.6424 16.9164 30.1295 16.7204C30.6838 16.4994 31.2632 16.3534 31.8594 16.295C31.935 16.2867 32.0148 16.2825 32.0904 16.2825C32.2541 16.2784 32.3759 16.3201 32.4893 16.4744C32.8252 16.9289 33.3207 17.1249 33.8623 17.2292C34.4292 17.3376 34.954 17.2 35.4789 17.0248C37.0955 16.4827 38.6617 15.8113 40.2279 15.1316C40.4336 15.044 40.6394 14.9564 40.8409 14.8605C40.9879 14.7896 41.1264 14.8021 41.2356 14.9064C41.4372 15.1024 41.6513 15.2942 41.8109 15.5236C42.4281 16.3868 42.8858 17.3251 43.1587 18.3551C43.1713 18.4052 43.1797 18.4594 43.1923 18.5094C43.2511 18.8305 43.2007 19.0682 42.8774 19.2809C41.6429 20.0858 40.4252 20.9156 39.2159 21.7622C38.2754 22.4211 37.3306 23.08 36.4405 23.8014C35.311 24.7189 34.362 25.7989 33.6944 27.1042C33.1149 28.2468 32.8672 29.452 33.0603 30.7198C33.2493 31.9583 33.3921 33.1969 33.3543 34.4521C33.3165 35.7282 33.1569 36.9918 32.8546 38.2345C32.4935 39.7191 31.9434 41.1328 31.196 42.4631C30.9315 42.9343 30.625 43.3805 30.3394 43.8392C30.3142 43.8768 30.2975 43.9185 30.2849 43.9643C30.7215 43.564 31.1456 43.1553 31.4857 42.6674C32.3339 41.4497 32.9344 40.1152 33.3795 38.7099C33.9967 36.7707 34.2402 34.7774 34.1311 32.7507C34.0849 31.8999 33.9505 31.0576 33.8791 30.211C33.8203 29.4937 33.9631 28.7973 34.2276 28.1301C34.2318 28.1217 34.2444 28.1176 34.2612 28.1051C34.7651 28.9808 35.6259 29.2352 36.5412 29.3478C38.2082 29.5605 39.8122 29.2977 41.37 28.6931C41.391 28.6847 41.412 28.6805 41.4456 28.6722C41.8361 29.4645 42.0586 30.2986 42.0922 31.1743C42.1342 32.2711 41.92 33.3345 41.6555 34.3896C41.3364 35.6573 40.8829 36.875 40.3496 38.0677C39.7828 39.3396 39.1278 40.5656 38.3678 41.7375C37.4734 43.122 36.4699 44.4147 35.206 45.4948C34.3662 46.2163 33.4466 46.8001 32.3633 47.092C31.0071 47.459 29.7306 47.2338 28.5213 46.5582C26.9635 45.6908 25.6241 44.5398 24.3434 43.3138C23.1173 42.1378 21.9878 40.8742 20.9591 39.5231C20.0815 38.3721 19.2543 37.1794 18.6833 35.845C18.1206 34.5355 17.6461 33.1885 17.3942 31.779C17.2682 31.0701 17.4026 30.4112 17.6251 29.7439C18.171 28.1176 19.0066 26.6622 20.1991 25.4153C20.6987 24.894 21.2488 24.4311 21.908 24.1142C22.1474 24.0016 22.3993 23.9182 22.6554 23.8473C23.2265 23.693 23.6548 23.9807 24.0663 24.3227C25.0782 25.1651 25.8382 26.2034 26.4764 27.3377C27.2364 28.6931 27.8285 30.1234 28.3324 31.5913C28.6221 32.4337 28.895 33.2844 29.1805 34.1268C29.2351 34.3479 29.3275 34.5439 29.4073 34.744ZM41.1012 15.119C40.9585 15.7946 42.193 18.3468 42.9446 18.8264C42.659 17.4043 42.0334 16.2075 41.1012 15.119Z" fill="url(#paint5_linear)"/>
<path d="M24.0962 23.38C23.9367 22.9838 23.7729 22.6335 23.6554 22.2707C23.353 21.3283 23.1599 20.3566 23.1935 19.3641C23.2523 17.6585 23.8317 16.1572 25.0326 14.9145C25.2635 14.6768 25.5533 14.5308 25.8472 14.3974C26.1579 14.2556 26.4728 14.1263 26.8003 13.9887C26.6072 13.4007 26.414 12.8169 26.2209 12.2205C26.8549 11.962 27.4806 11.7076 28.1272 11.4449C28.2364 11.6617 28.3497 11.8744 28.4547 12.0871C28.6605 12.4958 28.8662 12.9086 29.0636 13.3173C29.1181 13.4257 29.1769 13.4758 29.3071 13.4508C29.4666 13.4216 29.6346 13.4174 29.8152 13.4049C29.8445 12.6334 29.8739 11.8744 29.9033 11.0988C30.592 11.0737 31.2638 11.0446 31.9566 11.0195C31.9986 11.3573 32.0406 11.6868 32.0742 12.0204C32.1246 12.5 32.1749 12.9795 32.2211 13.4549C32.2295 13.5592 32.2715 13.6092 32.3765 13.6259C32.4941 13.6426 32.6074 13.676 32.7418 13.7093C33.0861 12.9545 33.4262 12.1955 33.7789 11.424C34.0729 11.5283 34.3584 11.6284 34.6439 11.7326C34.942 11.8411 35.2401 11.9578 35.5425 12.0579C35.6768 12.1038 35.7146 12.1497 35.6684 12.2956C35.4501 13.0212 35.2527 13.751 35.0344 14.4725C34.984 14.6393 35.005 14.7268 35.1604 14.8228C35.6306 15.1147 36.0421 15.4858 36.4578 15.9112C36.1009 16.0321 35.7734 16.1489 35.4459 16.2448C35.1856 16.324 34.921 16.3949 34.6565 16.445C34.1652 16.5409 33.7033 16.4658 33.2877 16.1822C33.2205 16.1364 33.1491 16.078 33.1155 16.0071C32.9223 15.6193 32.578 15.5234 32.1875 15.5108C31.5703 15.49 30.9783 15.6234 30.3904 15.7944C29.7522 15.9821 29.1475 16.249 28.6143 16.6451C28.1524 16.9871 27.7871 17.3999 27.7283 18.0046C27.6947 18.3382 27.7871 18.6427 27.9256 18.9387C28.0684 19.2473 28.0642 19.2974 27.7451 19.4225C26.6492 19.8437 25.9102 20.6527 25.2929 21.6035C24.957 22.1206 24.6295 22.6419 24.2936 23.1632C24.2516 23.2215 24.1886 23.2758 24.0962 23.38Z" fill="url(#paint6_linear)"/>
<path d="M23.0797 23.0418C22.2148 23.0334 21.5009 23.3879 20.8291 23.8424C19.9054 24.468 19.1495 25.2687 18.5365 26.1944C18.1082 26.845 17.7261 27.5289 17.3146 28.217C17.2138 27.9334 17.0837 27.6332 16.9955 27.3204C16.7268 26.3487 16.7604 25.3687 16.9367 24.3887C17.1551 23.1961 17.554 22.0534 17.9822 20.9233C18.3518 19.9475 18.6457 18.955 18.864 17.9374C19.1453 16.6113 19.4015 15.2852 19.666 13.9549C19.6996 13.7923 19.7374 13.6296 19.7416 13.467C19.7458 13.2209 19.897 13.0917 20.0985 13.0458C20.51 12.9457 20.9257 12.8415 21.3456 12.8039C22.156 12.7289 22.9664 12.7455 23.7599 12.9332C23.9195 12.9707 24.0791 13.0208 24.2302 13.0833C24.4486 13.1792 24.499 13.296 24.4696 13.5337C24.4318 13.7964 24.4108 14.0592 24.3688 14.3177C24.3562 14.4011 24.3268 14.4929 24.2722 14.5512C23.487 15.3853 23.0041 16.3778 22.6808 17.462C22.3281 18.6547 22.3113 19.8599 22.5507 21.0693C22.6724 21.6823 22.8698 22.2786 23.0293 22.8875C23.0503 22.9333 23.0629 22.975 23.0797 23.0418ZM24.163 13.3961C23.4072 12.9332 20.6444 12.9707 20.0985 13.4044C21.4589 13.7631 22.79 13.7672 24.163 13.3961Z" fill="url(#paint7_linear)"/>
<path d="M39.5351 22.7251C39.9298 23.1421 40.2363 23.5925 40.4966 24.0762C40.9501 24.9103 41.2188 25.7985 41.2944 26.7368C41.3238 27.083 41.2776 27.4374 41.2482 27.7877C41.244 27.8419 41.1684 27.9128 41.1096 27.942C40.1901 28.3382 39.2201 28.5384 38.2292 28.6176C37.5406 28.6718 36.8562 28.6801 36.1843 28.5092C35.8862 28.4341 35.5965 28.2965 35.3278 28.1464C35.0044 27.9629 34.8827 27.6501 34.8995 27.279C34.9163 26.7952 35.1724 26.4324 35.4705 26.0821C36.2347 25.1855 37.1165 24.4182 38.0738 23.7301C38.5567 23.384 39.048 23.0587 39.5351 22.7251Z" fill="url(#paint8_linear)"/>
<path d="M41.1016 15.1187C42.0337 16.2071 42.6594 17.4039 42.9449 18.826C42.1933 18.3464 40.9546 15.7942 41.1016 15.1187Z" fill="url(#paint9_linear)"/>
<path d="M24.1629 13.3962C22.7857 13.7716 21.4588 13.7674 20.0984 13.4046C20.6484 12.9709 23.4113 12.9333 24.1629 13.3962Z" fill="url(#paint10_linear)"/>
<defs>
<linearGradient id="paint0_linear" x1="29.9907" y1="10.8149" x2="29.9907" y2="47.4667" gradientUnits="userSpaceOnUse">
<stop stop-color="#4F4F4F"/>
<stop offset="1" stop-color="#EB5757"/>
</linearGradient>
<linearGradient id="paint1_linear" x1="30.2585" y1="14.6162" x2="30.2585" y2="47.475" gradientUnits="userSpaceOnUse">
<stop stop-color="#4F4F4F"/>
<stop offset="1" stop-color="#EB5757"/>
</linearGradient>
<linearGradient id="paint2_linear" x1="29.8839" y1="10.8188" x2="29.8839" y2="23.5752" gradientUnits="userSpaceOnUse">
<stop stop-color="#4F4F4F"/>
<stop offset="1" stop-color="#EB5757"/>
</linearGradient>
<linearGradient id="paint3_linear" x1="20.6407" y1="12.562" x2="20.6407" y2="28.7135" gradientUnits="userSpaceOnUse">
<stop stop-color="#4F4F4F"/>
<stop offset="1" stop-color="#EB5757"/>
</linearGradient>
<linearGradient id="paint4_linear" x1="38.0975" y1="22.4668" x2="38.0975" y2="28.8375" gradientUnits="userSpaceOnUse">
<stop stop-color="#4F4F4F"/>
<stop offset="1" stop-color="#EB5757"/>
</linearGradient>
<linearGradient id="paint5_linear" x1="30.2796" y1="14.8159" x2="30.2796" y2="47.267" gradientUnits="userSpaceOnUse">
<stop stop-color="#4F4F4F"/>
<stop offset="1" stop-color="#EB5757"/>
</linearGradient>
<linearGradient id="paint6_linear" x1="29.8238" y1="11.0195" x2="29.8238" y2="23.38" gradientUnits="userSpaceOnUse">
<stop stop-color="#4F4F4F"/>
<stop offset="1" stop-color="#EB5757"/>
</linearGradient>
<linearGradient id="paint7_linear" x1="20.6381" y1="12.7622" x2="20.6381" y2="28.217" gradientUnits="userSpaceOnUse">
<stop stop-color="#4F4F4F"/>
<stop offset="1" stop-color="#EB5757"/>
</linearGradient>
<linearGradient id="paint8_linear" x1="38.1009" y1="22.7251" x2="38.1009" y2="28.6522" gradientUnits="userSpaceOnUse">
<stop stop-color="#4F4F4F"/>
<stop offset="1" stop-color="#EB5757"/>
</linearGradient>
<linearGradient id="paint9_linear" x1="42.0173" y1="15.1187" x2="42.0173" y2="18.826" gradientUnits="userSpaceOnUse">
<stop stop-color="#4F4F4F"/>
<stop offset="1" stop-color="#EB5757"/>
</linearGradient>
<linearGradient id="paint10_linear" x1="22.1307" y1="13.064" x2="22.1307" y2="13.6772" gradientUnits="userSpaceOnUse">
<stop stop-color="#4F4F4F"/>
<stop offset="1" stop-color="#EB5757"/>
</linearGradient>
</defs>
</svg>