<svg width="145" height="146" viewBox="0 0 145 146" fill="none" xmlns="http://www.w3.org/2000/svg">
<g filter="url(#filter0_d)">
<rect x="14" y="14.7193" width="124.393" height="124.393" rx="62.1965" fill="#F2F2F2"/>
<path d="M79.9434 104.112C79.9168 104.094 79.8902 104.086 79.8637 104.068C79.8814 104.024 79.8991 103.989 79.9168 103.945C80.3506 102.925 80.8286 101.914 81.2182 100.876C82.5992 97.2364 83.3251 93.4645 83.5199 89.5783C83.6615 86.6944 83.4402 83.8369 82.9533 80.997C82.6346 79.1594 82.7851 77.3482 83.3428 75.5722C84.2458 72.6883 85.9987 70.332 88.0968 68.2043C89.708 66.5777 91.514 65.1709 93.3996 63.8697C96.8522 61.5046 100.331 59.157 103.784 56.7919C103.979 56.66 104.173 56.4138 104.227 56.1852C104.306 55.8511 104.315 55.4731 104.271 55.1302C104.111 53.9696 103.669 52.8881 103.182 51.8331C102.483 50.3208 101.695 48.8701 100.544 47.6391C99.8621 46.9094 99.2779 46.5929 98.428 47.1644C98.3749 47.1995 98.3129 47.2083 98.2598 47.2347C94.7983 48.7294 91.3546 50.2417 87.7781 51.455C86.7157 51.8155 85.6534 52.1935 84.4937 52.0177C83.3782 51.8506 82.3336 51.5165 81.6608 50.5582C81.3687 50.1361 81.05 50.0043 80.5808 49.9955C79.2794 49.9867 78.0312 50.2592 76.8183 50.6813C75.4816 51.1473 74.189 51.7012 73.1975 52.7562C72.5513 53.442 72.2945 54.2246 72.7106 55.139C72.8523 55.4467 72.9674 55.7544 73.0736 56.0709C73.2861 56.7216 73.1444 57.2491 72.5955 57.6535C72.2149 57.9261 71.7634 58.1019 71.365 58.3481C70.6922 58.7614 69.9751 59.1394 69.382 59.6406C68.1514 60.6781 67.3193 62.0409 66.4783 63.3949C65.832 64.4412 65.292 65.5754 64.3005 66.3755C64.7254 66.7711 65.1415 67.1316 65.5399 67.5273C67.6291 69.5847 69.1252 72.0465 70.4 74.649C71.9758 77.8758 73.0824 81.2696 73.9146 84.7513C74.0385 85.2701 74.1448 85.7976 74.2599 86.3164C74.1271 86.1845 74.074 86.0438 74.0208 85.8943C73.1975 83.5732 72.4273 81.2432 71.5421 78.9484C70.5063 76.2492 69.2226 73.6643 67.5849 71.2728C66.3101 69.4176 64.8493 67.7471 62.9903 66.437C62.3529 65.9886 61.6535 65.7864 60.8744 65.8919C59.2986 66.1117 57.9973 66.8942 56.7845 67.8438C55.4388 68.8989 54.3057 70.1562 53.2876 71.5102C51.3754 74.0423 50.0298 76.8559 49.1976 79.9068C49.056 80.4255 48.9409 80.9706 48.9409 81.507C48.9497 83.283 49.357 84.9975 49.9324 86.6593C50.6141 88.6463 51.2869 90.6509 52.1633 92.5501C53.7568 95.9966 56.0497 99.0212 58.4665 101.94C60.2016 104.033 62.0607 106.02 64.026 107.901C66.2924 110.064 68.6738 112.095 71.3296 113.783C72.6398 114.619 74.012 115.366 75.5258 115.77C78.4118 116.544 81.1562 116.096 83.7766 114.733C86.1138 113.511 88.0525 111.796 89.8142 109.871C92.5763 106.838 94.7629 103.426 96.6574 99.8125C97.8703 97.5089 98.9326 95.135 99.8002 92.6908C100.88 89.6486 101.721 86.5537 101.951 83.3182C102.111 81.1113 101.721 79.01 100.871 76.979C100.721 76.6273 100.553 76.2932 100.402 75.9766C99.7205 76.2316 99.092 76.5306 98.4368 76.68C97.0735 77.0053 95.7013 77.3131 94.3114 77.5153C92.2842 77.8142 90.248 77.7615 88.2738 77.19C86.7246 76.7416 85.4941 75.9063 85.1399 74.1918C85.1399 74.1742 85.1045 74.1654 85.0603 74.1303C84.9186 74.4468 84.7681 74.7545 84.6353 75.071C83.8032 77.1108 83.6615 79.2034 83.9891 81.3751C84.414 84.1886 84.538 87.0109 84.2901 89.8596C83.9271 94.1239 82.8471 98.1859 81.0145 102.046C80.687 102.758 80.3063 103.435 79.9434 104.112ZM81.6342 44.4388C81.2713 44.4739 81.165 44.3069 81.1385 44.0167C81.0677 43.243 80.9791 42.4693 80.8906 41.6956C80.7932 40.7636 80.687 39.8316 80.5896 38.8732C78.8633 38.9348 77.1813 38.9963 75.455 39.0579C75.393 40.702 75.3311 42.311 75.2602 43.92C75.1186 43.9376 75.0124 43.9376 74.9238 43.964C74.6051 44.0607 74.4281 43.964 74.313 43.6387C74.1979 43.3221 74.0208 43.0408 73.8703 42.7418C73.3569 41.7219 72.8523 40.7108 72.3211 39.6558C70.7276 40.3064 69.1607 40.9482 67.576 41.5989C67.9921 42.8474 68.3905 44.0783 68.7977 45.318C68.2931 45.5378 67.8239 45.7576 67.337 45.9422C66.0091 46.4434 65.0175 47.3666 64.1854 48.4744C62.6981 50.4615 61.8305 52.7035 61.4322 55.1302C61.1754 56.6952 61.264 58.2602 61.5118 59.8252C61.8217 61.7595 62.3174 63.6499 63.2204 65.3995C63.4418 65.8304 63.6808 65.8831 64.0172 65.5402C64.2739 65.2764 64.5129 64.9775 64.7077 64.6698C65.469 63.4916 66.1861 62.2871 66.9829 61.1353C67.9744 59.7021 69.1695 58.4712 70.7896 57.7063C71.1348 57.5392 71.4978 57.4074 71.8253 57.2051C72.4008 56.8534 72.4185 56.66 72.1795 56.0358C71.9758 55.5258 71.7634 54.9895 71.7103 54.4444C71.5863 53.2574 72.2503 52.3958 73.1267 51.6924C74.3927 50.6637 75.8799 50.0834 77.438 49.6526C78.5623 49.3448 79.6955 49.1338 80.8729 49.213C81.3775 49.2481 81.8733 49.3448 82.1477 49.846C82.4133 50.3208 82.8117 50.6373 83.3074 50.8571C84.237 51.2791 85.2108 51.3671 86.1934 51.1033C87.3531 50.7868 88.504 50.4087 89.646 50.0482C89.8939 49.9691 90.1329 49.846 90.4074 49.7229C89.4247 48.7118 88.4332 47.7886 87.3089 47.0237C87.123 46.9006 87.0787 46.7775 87.1407 46.5665C87.5125 45.318 87.8755 44.0783 88.2296 42.8298C88.3712 42.3462 88.4952 41.8626 88.6368 41.3527C87.0079 40.7636 85.4232 40.1833 83.8297 39.603C83.0861 41.2384 82.369 42.8386 81.6342 44.4388ZM62.1404 65.1446C62.1138 65.0303 62.1227 64.9775 62.0961 64.9335C61.5561 63.7818 61.2108 62.5772 60.963 61.3375C60.5912 59.4911 60.3167 57.6272 60.5469 55.7368C60.9541 52.387 62.1227 49.3624 64.4952 46.8742C64.5749 46.7951 64.6103 46.6544 64.6192 46.5401C64.6988 45.8983 64.752 45.2564 64.8316 44.6234C64.9113 43.9376 64.8051 43.6123 64.1588 43.3485C63.486 43.076 62.7689 42.8737 62.0519 42.7594C60.4938 42.5132 58.918 42.5308 57.351 42.6891C56.448 42.777 55.5451 42.9089 54.7217 43.3485C54.3765 43.5332 54.1198 43.7881 54.0578 44.1926C53.925 45.0103 53.8099 45.8279 53.6506 46.6456C53.1637 49.0811 52.6768 51.5165 52.1544 53.9432C51.6852 56.1237 51.0213 58.2426 50.2334 60.3352C49.2242 63.0344 48.2858 65.76 47.9317 68.6439C47.6572 70.8859 47.8431 73.0664 48.7196 75.1678C48.9143 75.6425 49.171 76.0909 49.4278 76.6185C49.5163 76.4514 49.5606 76.3723 49.6048 76.2844C50.1094 75.2908 50.5609 74.2709 51.1187 73.3038C52.4112 71.0618 54.0047 69.0659 56.0143 67.413C56.9704 66.6305 57.9973 65.9534 59.157 65.505C60.1042 65.127 61.0781 64.9863 62.1404 65.1446ZM96.2591 63.4389C95.1967 64.1598 94.1255 64.8456 93.0986 65.5842C90.8943 67.1492 88.8404 68.8901 87.1318 71.0002C86.7866 71.431 86.4413 71.897 86.2466 72.407C85.6711 73.9017 85.919 75.2469 87.5036 76.0118C88.1765 76.3371 88.9201 76.5657 89.6637 76.6888C91.6468 77.0141 93.6386 76.8822 95.6128 76.5393C97.0735 76.2844 98.5077 75.9063 99.8621 75.2908C99.9949 75.2293 100.172 75.0798 100.19 74.9567C100.269 74.3589 100.34 73.7522 100.331 73.1455C100.322 71.3607 99.933 69.6374 99.2336 67.9933C98.5254 66.3139 97.5781 64.8105 96.2591 63.4389Z" fill="url(#paint0_linear)"/>
<path d="M79.9459 104.112C80.3 103.426 80.6895 102.758 81.017 102.064C82.8496 98.195 83.9208 94.1329 84.2926 89.8775C84.5405 87.0288 84.4077 84.2065 83.9916 81.3929C83.664 79.2213 83.8057 77.1287 84.6378 75.0889C84.7706 74.7724 84.9211 74.4646 85.0628 74.1481C85.107 74.1833 85.1424 74.1921 85.1424 74.2097C85.4877 75.9242 86.7182 76.7506 88.2763 77.2078C90.2594 77.7793 92.2867 77.8321 94.3139 77.5331C95.7038 77.3309 97.076 77.0232 98.4394 76.6979C99.0945 76.5396 99.723 76.2407 100.405 75.9945C100.555 76.311 100.732 76.6451 100.874 76.9968C101.724 79.0278 102.122 81.138 101.954 83.336C101.715 86.5716 100.883 89.6665 99.8027 92.7086C98.9263 95.1616 97.8639 97.5268 96.6599 99.8303C94.7654 103.444 92.5788 106.855 89.8167 109.889C88.0639 111.814 86.1163 113.529 83.7791 114.751C81.1587 116.114 78.4143 116.562 75.5283 115.788C74.0145 115.384 72.6423 114.637 71.3321 113.801C68.6762 112.113 66.2948 110.082 64.0285 107.919C62.0632 106.038 60.2041 104.051 58.469 101.958C56.0522 99.039 53.7593 96.0145 52.1658 92.5679C51.2894 90.6688 50.6165 88.6642 49.9349 86.6771C49.3594 85.0154 48.9522 83.2921 48.9434 81.5248C48.9434 80.9885 49.0496 80.4434 49.2001 79.9246C50.0411 76.8737 51.3779 74.0602 53.2901 71.528C54.317 70.174 55.4502 68.9167 56.7869 67.8616C57.9998 66.9121 59.31 66.1296 60.8769 65.9098C61.656 65.8042 62.3553 66.0065 62.9927 66.4549C64.8518 67.7649 66.3125 69.4355 67.5874 71.2906C69.234 73.6821 70.5088 76.267 71.5446 78.9663C72.421 81.2611 73.2 83.5998 74.0233 85.9122C74.0765 86.0616 74.1296 86.2111 74.2624 86.3342C74.1473 85.8155 74.041 85.2879 73.9171 84.7692C73.0761 81.2874 71.9695 77.8936 70.4025 74.6669C69.1277 72.0556 67.6316 69.6025 65.5424 67.5451C65.144 67.1583 64.7279 66.789 64.303 66.3933C65.2945 65.5932 65.8345 64.459 66.4808 63.4127C67.3129 62.0587 68.1451 60.6959 69.3845 59.6584C69.9865 59.1573 70.6947 58.7792 71.3675 58.366C71.7659 58.1198 72.2174 57.944 72.598 57.6714C73.1469 57.2757 73.2886 56.7394 73.0761 56.0888C72.9699 55.7723 72.8548 55.4557 72.7131 55.1568C72.297 54.2424 72.5538 53.4599 73.2 52.7741C74.1915 51.7278 75.484 51.1651 76.8208 50.6991C78.0337 50.2771 79.2819 50.0045 80.5833 50.0133C81.0525 50.0133 81.3712 50.154 81.6633 50.576C82.3361 51.5344 83.3896 51.8685 84.4962 52.0355C85.6559 52.2114 86.7182 51.8333 87.7806 51.4728C91.3571 50.2595 94.8008 48.7472 98.2623 47.2525C98.3154 47.2262 98.3862 47.2174 98.4305 47.1822C99.2804 46.6107 99.8646 46.9272 100.546 47.657C101.697 48.8879 102.494 50.3386 103.184 51.8509C103.671 52.906 104.114 53.9874 104.273 55.148C104.318 55.4909 104.309 55.869 104.229 56.2031C104.176 56.4317 103.981 56.6691 103.786 56.8098C100.334 59.1749 96.8547 61.5224 93.4021 63.8875C91.5076 65.18 89.7105 66.5868 88.0993 68.2221C86.0012 70.3411 84.2483 72.6974 83.3453 75.59C82.7876 77.3661 82.6371 79.1773 82.9558 81.0149C83.4427 83.8548 83.664 86.7123 83.5224 89.5961C83.3276 93.4823 82.6017 97.2542 81.2207 100.894C80.8223 101.932 80.3531 102.943 79.9193 103.963C79.9016 104.007 79.8839 104.042 79.8662 104.086C79.8927 104.086 79.9193 104.103 79.9459 104.112ZM74.8289 89.3236C74.6607 88.9015 74.4748 88.4883 74.3243 88.0663C73.7223 86.2902 73.1469 84.4966 72.5361 82.7206C71.4737 79.6257 70.2255 76.6099 68.6231 73.7525C67.2775 71.361 65.6751 69.1717 63.5416 67.3956C62.674 66.6747 61.7711 66.068 60.5671 66.3933C60.0271 66.5428 59.4959 66.7186 58.9913 66.956C57.6014 67.6155 56.4417 68.6002 55.3882 69.6992C52.874 72.3281 51.1123 75.3878 49.9614 78.8256C49.4922 80.2324 49.2089 81.6215 49.4745 83.1162C50.0145 86.0968 51.0061 88.9279 52.1923 91.6887C53.4052 94.5022 55.1403 97.0168 56.9906 99.4435C59.1595 102.292 61.5409 104.947 64.1259 107.436C66.8172 110.021 69.6412 112.447 72.9344 114.276C75.4929 115.7 78.1753 116.175 81.0348 115.401C83.3188 114.777 85.2575 113.546 87.0281 112.034C89.6839 109.757 91.8086 107.031 93.6943 104.112C95.2878 101.642 96.6688 99.0566 97.8728 96.375C98.9971 93.8604 99.962 91.293 100.626 88.6202C101.184 86.3958 101.635 84.1537 101.547 81.8414C101.476 79.9862 101.007 78.2365 100.183 76.566C100.121 76.5836 100.068 76.5924 100.024 76.6099C96.7396 77.8936 93.3578 78.4387 89.8433 77.9903C87.9134 77.7442 86.0985 77.2166 85.0362 75.3702C85.0008 75.3878 84.9742 75.3966 84.9654 75.423C84.4077 76.8385 84.1067 78.2981 84.2306 79.8103C84.3811 81.5952 84.6644 83.38 84.7618 85.1648C84.992 89.4379 84.4873 93.6406 83.1771 97.729C82.2299 100.692 80.9728 103.506 79.1845 106.073C78.4674 107.102 77.5733 107.963 76.6526 108.807C76.6703 108.711 76.7146 108.623 76.7677 108.543C77.3697 107.576 78.0159 106.636 78.5737 105.642C80.1583 102.837 81.3092 99.8567 82.0705 96.7267C82.7079 94.1066 83.0443 91.4513 83.124 88.7521C83.2037 86.1056 82.9027 83.4943 82.5043 80.883C82.0971 78.2013 82.6105 75.6604 83.8411 73.2601C85.2398 70.5081 87.2494 68.2309 89.6308 66.2966C91.5076 64.7755 93.4995 63.3864 95.4825 61.9972C98.0321 60.2124 100.599 58.4627 103.202 56.7658C103.884 56.3262 103.99 55.825 103.866 55.1392C103.848 55.0337 103.822 54.9194 103.795 54.8139C103.229 52.651 102.255 50.664 100.954 48.844C100.608 48.3692 100.166 47.9559 99.7407 47.5427C99.5105 47.3229 99.2184 47.2965 98.9085 47.446C98.4836 47.6482 98.0498 47.8328 97.616 48.0175C94.3228 49.4506 91.0207 50.8662 87.6035 52.0092C86.4969 52.3784 85.3903 52.6686 84.1952 52.44C83.0443 52.2202 82.0086 51.8069 81.3003 50.8486C81.0613 50.5233 80.8046 50.4354 80.4593 50.4441C80.3 50.4441 80.1318 50.4529 79.9724 50.4705C78.7153 50.5936 77.4936 50.9013 76.3251 51.3673C75.307 51.7718 74.3243 52.2641 73.5364 53.0642C72.8725 53.7325 72.7751 54.3743 73.1558 55.2271C73.2886 55.5349 73.4125 55.8426 73.501 56.1679C73.6781 56.8273 73.5541 57.4604 73.0141 57.8912C72.5626 58.2517 72.0492 58.5418 71.518 58.7792C70.3052 59.3243 69.3136 60.142 68.5346 61.1883C67.7201 62.2961 67.0031 63.4743 66.2417 64.6173C65.8256 65.2415 65.4007 65.857 65.0466 66.3757C65.3653 66.745 65.6663 67.1231 66.0116 67.4748C68.0477 69.5498 69.535 71.9852 70.7832 74.5701C72.1465 77.4013 73.1823 80.3467 73.9702 83.3888C74.4925 85.2967 75.006 87.2486 74.8289 89.3236Z" fill="url(#paint1_linear)"/>
<path d="M81.6368 44.4385C82.3627 42.8295 83.0887 41.2381 83.8235 39.6115C85.4258 40.1918 87.0105 40.7633 88.6305 41.3612C88.4889 41.8712 88.3649 42.3547 88.2233 42.8383C87.8603 44.0868 87.4974 45.3353 87.1344 46.575C87.0724 46.786 87.1167 46.9003 87.3026 47.0322C88.4269 47.7972 89.4184 48.7116 90.4011 49.7315C90.1266 49.8458 89.8876 49.9776 89.6397 50.0568C88.4889 50.4173 87.3469 50.7953 86.1871 51.1118C85.2133 51.3756 84.2395 51.2789 83.3011 50.8657C82.8142 50.6459 82.407 50.3381 82.1414 49.8545C81.867 49.3534 81.3712 49.2567 80.8666 49.2215C79.698 49.1424 78.556 49.3534 77.4317 49.6611C75.8736 50.0919 74.3864 50.6722 73.1204 51.7009C72.2528 52.4043 71.5889 53.266 71.704 54.4529C71.7571 54.9892 71.9696 55.5256 72.1732 56.0443C72.4211 56.6686 72.4033 56.862 71.8191 57.2137C71.4915 57.4159 71.1285 57.5478 70.7833 57.7148C69.1632 58.471 67.9681 59.7019 66.9766 61.1438C66.1798 62.2956 65.4716 63.5002 64.7014 64.6783C64.4978 64.9861 64.2676 65.285 64.0109 65.5488C63.6745 65.9005 63.4355 65.8389 63.2141 65.4081C62.3023 63.6496 61.8154 61.7681 61.5056 59.8338C61.2577 58.2688 61.1603 56.7037 61.4259 55.1387C61.8243 52.712 62.7007 50.47 64.1791 48.483C65.0113 47.3751 65.9939 46.4519 67.3307 45.9508C67.8176 45.7661 68.2868 45.5463 68.7914 45.3265C68.3842 44.0868 67.977 42.8559 67.5697 41.6074C69.1544 40.9568 70.7302 40.3149 72.3148 39.6643C72.8371 40.7194 73.3506 41.7305 73.8641 42.7504C74.0146 43.0493 74.1916 43.3395 74.3067 43.6472C74.4218 43.9725 74.6077 44.0692 74.9175 43.9725C75.0149 43.9461 75.1123 43.9461 75.2539 43.9286C75.3159 42.3196 75.3779 40.7018 75.4487 39.0664C77.1662 39.0049 78.857 38.9433 80.5833 38.8818C80.6896 39.8401 80.7869 40.7721 80.8843 41.7041C80.964 42.4778 81.0614 43.2516 81.1322 44.0253C81.1765 44.3066 81.2738 44.4737 81.6368 44.4385ZM63.6302 65.3641C63.825 65.1443 63.9578 65.03 64.0463 64.8893C64.7545 63.7991 65.4451 62.6913 66.1533 61.601C67.4546 59.6052 69.0127 57.8995 71.3233 57.0027C71.9961 56.7389 72.0138 56.6334 71.704 55.9828C71.4118 55.3585 71.2171 54.7079 71.2879 54.0133C71.4118 52.7384 72.182 51.868 73.1558 51.147C74.289 50.3117 75.5638 49.749 76.9006 49.3534C78.1311 48.9929 79.3882 48.7028 80.6896 48.7555C81.5129 48.7819 82.2388 48.9929 82.646 49.8018C82.7169 49.9513 82.8673 50.0744 83.009 50.1711C83.8854 50.7689 84.8681 50.9272 85.895 50.725C86.4527 50.6195 87.0105 50.47 87.5593 50.303C88.2587 50.0919 88.9404 49.8458 89.6929 49.5996C88.8164 48.7028 87.9489 47.9202 86.9573 47.3048C86.6209 47.1026 86.5855 46.9091 86.6918 46.5662C87.1521 45.0364 87.5682 43.4977 88.0285 41.9767C88.1259 41.6689 88.0374 41.5722 87.7629 41.4755C87.1255 41.2645 86.497 41.0183 85.8684 40.7897C85.2665 40.5699 84.6645 40.3589 84.0448 40.1391C83.31 41.7744 82.5841 43.3659 81.8581 44.9573C81.5748 44.8869 81.3358 44.8166 81.0879 44.7814C80.8578 44.7462 80.7781 44.6407 80.7604 44.4209C80.663 43.4098 80.5656 42.3987 80.4505 41.3964C80.3797 40.7018 80.2823 40.0072 80.2027 39.2862C78.7419 39.339 77.3255 39.4005 75.8736 39.4533C75.8117 41.0887 75.7497 42.6888 75.6877 44.3154C75.3071 44.3506 74.953 44.3506 74.6165 44.4121C74.3421 44.4649 74.2093 44.3594 74.1031 44.1308C73.6782 43.2603 73.2532 42.3987 72.8194 41.5371C72.5981 41.0887 72.3591 40.6402 72.1289 40.183C70.7656 40.737 69.4465 41.2733 68.1097 41.8184C68.5258 43.0845 68.9242 44.3154 69.3314 45.5551C68.6409 45.8453 67.977 46.1178 67.3218 46.4168C66.7021 46.6981 66.0913 47.0059 65.6044 47.507C63.0636 50.1271 61.8508 53.3011 61.7269 56.8884C61.6561 58.9809 62.0544 61.0295 62.7007 63.0166C62.9486 63.7903 63.2938 64.5289 63.6302 65.3641Z" fill="url(#paint2_linear)"/>
<path d="M62.1413 65.1445C61.0878 64.995 60.1052 65.1269 59.1668 65.4961C58.0071 65.9446 56.9801 66.6216 56.024 67.4041C54.0144 69.057 52.4121 71.0529 51.1284 73.2949C50.5707 74.262 50.1192 75.2819 49.6146 76.2755C49.5703 76.3634 49.5261 76.4425 49.4375 76.6096C49.1808 76.082 48.9241 75.6336 48.7293 75.1589C47.8529 73.0575 47.667 70.877 47.9414 68.635C48.2955 65.7511 49.2339 63.0255 50.2431 60.3263C51.031 58.2337 51.6862 56.1148 52.1642 53.9343C52.6865 51.5076 53.1734 49.0722 53.6603 46.6367C53.8197 45.8278 53.9348 45.0013 54.0676 44.1837C54.1295 43.7792 54.3951 43.5242 54.7315 43.3396C55.5548 42.9 56.4578 42.7681 57.3608 42.6802C58.9277 42.5131 60.5035 42.4955 62.0616 42.7505C62.7787 42.8648 63.4958 43.067 64.1686 43.3396C64.8149 43.6034 64.9211 43.9287 64.8414 44.6145C64.7617 45.2563 64.7086 45.8982 64.6289 46.5312C64.6112 46.6455 64.5758 46.7862 64.505 46.8653C62.1325 49.3535 60.9639 52.3781 60.5567 55.7279C60.3265 57.6183 60.6009 59.4822 60.9727 61.3286C61.2206 62.5683 61.5659 63.7817 62.1059 64.9246C62.1147 64.9686 62.1147 65.0214 62.1413 65.1445ZM61.4862 64.6521C61.4508 64.5202 61.4154 64.4235 61.3977 64.3268C61.0524 63.0519 60.6363 61.7946 60.3885 60.4933C59.8838 57.9436 59.9193 55.4026 60.6629 52.888C61.3446 50.602 62.3626 48.5095 64.0181 46.751C64.1332 46.6279 64.1952 46.4345 64.2217 46.2586C64.3102 45.7047 64.3545 45.1508 64.4342 44.6057C64.505 44.1045 64.3988 43.8584 63.9296 43.6561C63.6109 43.5155 63.2745 43.4187 62.9381 43.3396C61.256 42.944 59.5474 42.9088 57.8477 43.067C56.9624 43.1462 56.086 43.366 55.2184 43.577C54.7935 43.6825 54.4748 43.9463 54.4659 44.465C54.4571 44.8079 54.3686 45.1508 54.3066 45.4937C53.7489 48.2897 53.2088 51.0944 52.6157 53.8903C52.1554 56.0357 51.5357 58.1282 50.7566 60.1856C49.8359 62.5683 48.9949 64.9774 48.5346 67.492C48.1539 69.5582 48.0919 71.6244 48.6585 73.673C48.8444 74.3236 49.11 74.9566 49.3313 75.5633C50.2077 74.1038 51.0045 72.6618 51.9075 71.299C53.2 69.3472 54.7935 67.6678 56.7411 66.3402C58.1575 65.3818 59.6625 64.6345 61.4862 64.6521Z" fill="url(#paint3_linear)"/>
<path d="M96.2621 63.4394C97.59 64.8022 98.5373 66.3144 99.2366 67.985C99.9272 69.6379 100.317 71.3524 100.334 73.1372C100.334 73.7439 100.272 74.3506 100.193 74.9484C100.175 75.0715 99.998 75.221 99.8652 75.2826C98.5107 75.8892 97.0766 76.2673 95.6159 76.5311C93.6417 76.874 91.6498 77.0146 89.6668 76.6805C88.932 76.5574 88.1795 76.3288 87.5067 76.0035C85.9309 75.2298 85.6742 73.8934 86.2496 72.3987C86.4444 71.8887 86.7808 71.4227 87.1349 70.9919C88.8435 68.8818 90.8973 67.1409 93.1017 65.5759C94.1286 64.8461 95.1909 64.1603 96.2621 63.4394ZM96.1824 63.9845C95.1467 64.6967 94.1109 65.3825 93.1017 66.1034C91.0832 67.5454 89.2241 69.1719 87.6129 71.0623C86.9844 71.8008 86.4444 72.5657 86.409 73.5856C86.3824 74.3682 86.6303 75.0276 87.3119 75.4144C87.8785 75.7398 88.4894 76.0211 89.1179 76.1794C90.5344 76.5486 91.9774 76.5311 93.4292 76.408C95.5273 76.2409 97.5635 75.8101 99.5022 74.9836C99.6262 74.9309 99.7855 74.7814 99.7944 74.6583C99.8475 73.9197 99.9449 73.1724 99.8918 72.4426C99.7324 70.4556 99.1658 68.5828 98.2097 66.8332C97.6609 65.8133 97.0146 64.8637 96.1824 63.9845Z" fill="url(#paint4_linear)"/>
<path d="M74.8285 89.3241C75.0056 87.2491 74.501 85.2973 73.9964 83.3454C73.2085 80.3032 72.1727 77.3578 70.8094 74.5267C69.5611 71.9418 68.0739 69.5063 66.0377 67.4314C65.7013 67.0885 65.4003 66.7016 65.0728 66.3323C65.4269 65.8136 65.8518 65.1981 66.2679 64.5739C67.0292 63.4309 67.7463 62.2527 68.5608 61.1449C69.331 60.0986 70.3225 59.2721 71.5442 58.7358C72.0753 58.4984 72.5888 58.1995 73.0403 57.8478C73.5892 57.417 73.7042 56.7927 73.5272 56.1245C73.4387 55.7992 73.3236 55.4914 73.1819 55.1837C72.7924 54.3221 72.8986 53.689 73.5626 53.0208C74.3505 52.2207 75.3243 51.7371 76.3512 51.3239C77.5198 50.8579 78.7415 50.5502 79.9986 50.4271C80.1579 50.4095 80.3261 50.4007 80.4855 50.4007C80.8307 50.3919 81.0875 50.4799 81.3265 50.8052C82.0347 51.7635 83.0794 52.1768 84.2214 52.3966C85.4165 52.6252 86.5231 52.335 87.6297 51.9657C91.038 50.8228 94.3401 49.4072 97.6422 47.9741C98.076 47.7894 98.5098 47.6048 98.9347 47.4026C99.2446 47.2531 99.5367 47.2795 99.7669 47.4993C100.192 47.9125 100.643 48.317 100.98 48.8005C102.281 50.6205 103.246 52.5988 103.821 54.7705C103.848 54.876 103.866 54.9903 103.892 55.0958C104.016 55.7728 103.91 56.274 103.228 56.7224C100.626 58.4193 98.0583 60.1689 95.5087 61.9538C93.5257 63.3429 91.5338 64.7321 89.657 66.2532C87.2756 68.1875 85.2748 70.4647 83.8673 73.2167C82.6456 75.6258 82.1233 78.1667 82.5305 80.8396C82.9289 83.4509 83.2299 86.0622 83.1502 88.7087C83.0705 91.3991 82.7341 94.0631 82.0967 96.6832C81.3354 99.8133 80.1756 102.794 78.5998 105.599C78.0421 106.592 77.3959 107.533 76.7939 108.5C76.7408 108.579 76.7053 108.667 76.6788 108.764C77.5995 107.92 78.4936 107.058 79.2107 106.029C80.9989 103.462 82.2649 100.649 83.2033 97.6856C84.5047 93.5972 85.0181 89.3945 84.7879 85.1214C84.6906 83.3278 84.4073 81.5517 84.2568 79.7669C84.1328 78.2546 84.4338 76.7863 84.9916 75.3796C85.0004 75.362 85.027 75.3532 85.0624 75.3268C86.1247 77.1732 87.9395 77.7095 89.8694 77.9469C93.384 78.3953 96.7658 77.8414 100.05 76.5665C100.094 76.5489 100.139 76.5401 100.21 76.5226C101.033 78.1931 101.502 79.9515 101.573 81.7979C101.661 84.1103 101.21 86.3523 100.652 88.5768C99.9793 91.2496 99.0232 93.817 97.8989 96.3316C96.7038 99.0132 95.3228 101.598 93.7204 104.069C91.8348 106.988 89.719 109.713 87.0543 111.991C85.2837 113.512 83.3449 114.743 81.0609 115.358C78.2015 116.132 75.5102 115.657 72.9606 114.233C69.6762 112.404 66.8522 109.977 64.1521 107.392C61.5671 104.913 59.1857 102.249 57.0167 99.4001C55.1665 96.9734 53.4225 94.4588 52.2185 91.6453C51.0322 88.8845 50.0319 86.0446 49.5007 83.0728C49.2351 81.5781 49.5184 80.1889 49.9876 78.7822C51.1385 75.3532 52.9002 72.2847 55.4144 69.6558C56.4678 68.5568 57.6276 67.5808 59.0175 66.9126C59.5221 66.6752 60.0532 66.4994 60.5933 66.3499C61.7972 66.0246 62.7002 66.6313 63.5678 67.3522C65.7013 69.1283 67.3037 71.3175 68.6493 73.709C70.2517 76.5665 71.4999 79.5823 72.5622 82.6772C73.1731 84.4532 73.7485 86.2468 74.3505 88.0229C74.4656 88.4888 74.6603 88.9021 74.8285 89.3241ZM99.4836 47.9477C99.1826 49.372 101.785 54.7529 103.37 55.764C102.768 52.7658 101.449 50.2425 99.4836 47.9477Z" fill="url(#paint5_linear)"/>
<path d="M63.6281 65.3645C63.2917 64.5292 62.9465 63.7906 62.6986 63.0257C62.0612 61.0387 61.6539 58.9901 61.7248 56.8975C61.8487 53.3015 63.0704 50.1362 65.6023 47.5161C66.0892 47.015 66.7 46.7072 67.3197 46.4259C67.9748 46.127 68.6388 45.8544 69.3293 45.5643C68.9221 44.3245 68.5149 43.0936 68.1076 41.8363C69.4444 41.2912 70.7635 40.7549 72.1268 40.201C72.357 40.6582 72.596 41.1066 72.8173 41.555C73.2511 42.4166 73.6849 43.2871 74.101 44.1487C74.2161 44.3773 74.34 44.4828 74.6144 44.43C74.9508 44.3685 75.305 44.3597 75.6856 44.3333C75.7476 42.7068 75.8096 41.1066 75.8715 39.4712C77.3234 39.4185 78.7398 39.3569 80.2005 39.3042C80.2891 40.0163 80.3776 40.7109 80.4484 41.4143C80.5547 42.4254 80.6609 43.4365 80.7583 44.4388C80.776 44.6586 80.8645 44.7642 81.0858 44.7993C81.3337 44.8345 81.5727 44.9048 81.856 44.9752C82.5819 43.3838 83.299 41.7836 84.0427 40.157C84.6624 40.3768 85.2643 40.5878 85.8663 40.8076C86.4949 41.0362 87.1234 41.2824 87.7608 41.4934C88.0441 41.5901 88.1238 41.6869 88.0264 41.9946C87.5661 43.5244 87.15 45.0631 86.6896 46.5842C86.5834 46.9358 86.6277 47.1205 86.9552 47.3227C87.9467 47.9382 88.8143 48.7207 89.6907 49.6175C88.9383 49.8725 88.2477 50.1187 87.5572 50.3209C87.0083 50.4879 86.4506 50.6374 85.8929 50.7429C84.8571 50.9451 83.8833 50.7869 83.0069 50.189C82.8652 50.0923 82.7147 49.9692 82.6439 49.8197C82.2367 49.002 81.5108 48.7998 80.6875 48.7734C79.3861 48.7295 78.1378 49.0108 76.8985 49.3713C75.5528 49.767 74.278 50.3297 73.1537 51.1649C72.1799 51.8859 71.4097 52.7563 71.2858 54.0312C71.215 54.7346 71.4097 55.3764 71.7019 56.0007C72.0029 56.6513 71.994 56.7568 71.3212 57.0206C69.0106 57.9086 67.4525 59.6143 66.1512 61.6189C65.4429 62.7092 64.7524 63.8082 64.0442 64.9073C63.9557 65.0304 63.8229 65.1446 63.6281 65.3645Z" fill="url(#paint6_linear)"/>
<path d="M61.4879 64.6518C59.6643 64.6343 58.1593 65.3816 56.7428 66.34C54.7952 67.6588 53.2017 69.3469 51.9092 71.2988C51.0062 72.6704 50.2006 74.1123 49.3331 75.5631C49.1206 74.9652 48.8462 74.3321 48.6602 73.6727C48.0937 71.6241 48.1645 69.5579 48.5363 67.4917C48.9967 64.9772 49.8377 62.5681 50.7407 60.1854C51.5197 58.128 52.1394 56.0354 52.5997 53.8901C53.1929 51.0942 53.7329 48.2982 54.2906 45.4935C54.3614 45.1506 54.4411 44.8077 54.45 44.4648C54.4588 43.946 54.7775 43.6735 55.2025 43.5768C56.07 43.3657 56.9465 43.1459 57.8317 43.0668C59.5403 42.9085 61.2489 42.9437 62.9221 43.3394C63.2585 43.4185 63.5949 43.524 63.9136 43.6559C64.374 43.8581 64.4802 44.1043 64.4182 44.6055C64.3385 45.1594 64.2943 45.7133 64.2058 46.2584C64.1792 46.4343 64.1172 46.6277 64.0021 46.7508C62.3467 48.5092 61.3286 50.6018 60.6469 52.8878C59.9033 55.4024 59.8679 57.9433 60.3725 60.4931C60.6292 61.7856 61.0453 63.0429 61.3817 64.3265C61.426 64.4232 61.4525 64.5112 61.4879 64.6518ZM63.772 44.3153C62.1785 43.3394 56.3533 43.4185 55.2025 44.3329C58.0708 45.089 60.8771 45.0978 63.772 44.3153Z" fill="url(#paint7_linear)"/>
<path d="M96.1829 63.9842C97.0151 64.8634 97.6613 65.813 98.2102 66.8329C99.1663 68.5913 99.7329 70.4641 99.8922 72.4423C99.9542 73.1721 99.8568 73.9194 99.7949 74.658C99.786 74.7723 99.6267 74.9217 99.5027 74.9833C97.564 75.8186 95.519 76.2406 93.4297 76.4076C91.9778 76.5219 90.5348 76.5395 89.1184 76.179C88.4898 76.0208 87.879 75.7306 87.3124 75.4141C86.6308 75.0273 86.374 74.3678 86.4094 73.5853C86.4449 72.5654 86.9849 71.8005 87.6134 71.0619C89.2246 69.1716 91.0837 67.5538 93.1022 66.1031C94.1202 65.3733 95.156 64.6875 96.1829 63.9842Z" fill="url(#paint8_linear)"/>
<path d="M99.4823 47.9468C101.448 50.2416 102.767 52.765 103.369 55.7631C101.784 54.752 99.1725 49.3712 99.4823 47.9468Z" fill="url(#paint9_linear)"/>
<path d="M63.7687 44.3157C60.865 45.107 58.0675 45.0982 55.1992 44.3332C56.3589 43.4188 62.1841 43.3397 63.7687 44.3157Z" fill="url(#paint10_linear)"/>
</g>
<defs>
<filter id="filter0_d" x="0" y="0.719254" width="144.393" height="144.393" filterUnits="userSpaceOnUse" color-interpolation-filters="sRGB">
<feFlood flood-opacity="0" result="BackgroundImageFix"/>
<feColorMatrix in="SourceAlpha" type="matrix" values="0 0 0 0 0 0 0 0 0 0 0 0 0 0 0 0 0 0 127 0"/>
<feOffset dx="-4" dy="-4"/>
<feGaussianBlur stdDeviation="5"/>
<feColorMatrix type="matrix" values="0 0 0 0 0.92549 0 0 0 0 0.92549 0 0 0 0 0.92549 0 0 0 0.05 0"/>
<feBlend mode="normal" in2="BackgroundImageFix" result="effect1_dropShadow"/>
<feBlend mode="normal" in="SourceGraphic" in2="effect1_dropShadow" result="shape"/>
</filter>
<linearGradient id="paint0_linear" x1="76.0559" y1="38.8732" x2="76.0559" y2="116.148" gradientUnits="userSpaceOnUse">
<stop stop-color="#4F4F4F"/>
<stop offset="1" stop-color="#EB5757"/>
</linearGradient>
<linearGradient id="paint1_linear" x1="76.6216" y1="46.8881" x2="76.6216" y2="116.166" gradientUnits="userSpaceOnUse">
<stop stop-color="#4F4F4F"/>
<stop offset="1" stop-color="#EB5757"/>
</linearGradient>
<linearGradient id="paint2_linear" x1="75.8343" y1="38.8818" x2="75.8343" y2="65.7768" gradientUnits="userSpaceOnUse">
<stop stop-color="#4F4F4F"/>
<stop offset="1" stop-color="#EB5757"/>
</linearGradient>
<linearGradient id="paint3_linear" x1="56.3443" y1="42.5565" x2="56.3443" y2="76.6096" gradientUnits="userSpaceOnUse">
<stop stop-color="#4F4F4F"/>
<stop offset="1" stop-color="#EB5757"/>
</linearGradient>
<linearGradient id="paint4_linear" x1="93.1516" y1="63.4394" x2="93.1516" y2="76.871" gradientUnits="userSpaceOnUse">
<stop stop-color="#4F4F4F"/>
<stop offset="1" stop-color="#EB5757"/>
</linearGradient>
<linearGradient id="paint5_linear" x1="76.6678" y1="47.3086" x2="76.6678" y2="115.727" gradientUnits="userSpaceOnUse">
<stop stop-color="#4F4F4F"/>
<stop offset="1" stop-color="#EB5757"/>
</linearGradient>
<linearGradient id="paint6_linear" x1="75.7038" y1="39.3042" x2="75.7038" y2="65.3645" gradientUnits="userSpaceOnUse">
<stop stop-color="#4F4F4F"/>
<stop offset="1" stop-color="#EB5757"/>
</linearGradient>
<linearGradient id="paint7_linear" x1="56.3402" y1="42.9789" x2="56.3402" y2="75.5631" gradientUnits="userSpaceOnUse">
<stop stop-color="#4F4F4F"/>
<stop offset="1" stop-color="#EB5757"/>
</linearGradient>
<linearGradient id="paint8_linear" x1="93.1592" y1="63.9842" x2="93.1592" y2="76.4806" gradientUnits="userSpaceOnUse">
<stop stop-color="#4F4F4F"/>
<stop offset="1" stop-color="#EB5757"/>
</linearGradient>
<linearGradient id="paint9_linear" x1="101.413" y1="47.9468" x2="101.413" y2="55.7631" gradientUnits="userSpaceOnUse">
<stop stop-color="#4F4F4F"/>
<stop offset="1" stop-color="#EB5757"/>
</linearGradient>
<linearGradient id="paint10_linear" x1="59.484" y1="43.6151" x2="59.484" y2="44.908" gradientUnits="userSpaceOnUse">
<stop stop-color="#4F4F4F"/>
<stop offset="1" stop-color="#EB5757"/>
</linearGradient>
</defs>
</svg>
