<svg width="134" height="134" viewBox="0 0 134 134" fill="none" xmlns="http://www.w3.org/2000/svg">
<g filter="url(#filter0_d)">
<circle cx="67" cy="63" r="42" fill="#9B51E0"/>
</g>
<g clip-path="url(#clip0)">
<path d="M67.0004 43.5366C77.8267 43.5366 86.6346 52.7274 86.6346 64.0244C86.6346 75.3214 77.8267 84.5122 67.0004 84.5122C56.1742 84.5122 47.3663 75.3214 47.3663 64.0244C47.3663 52.7274 56.1742 43.5366 67.0004 43.5366ZM67.0004 39.439C53.9889 39.439 43.4395 50.4471 43.4395 64.0244C43.4395 77.6017 53.9889 88.6098 67.0004 88.6098C80.012 88.6098 90.5614 77.6017 90.5614 64.0244C90.5614 50.4471 80.012 39.439 67.0004 39.439ZM63.0088 72.24C64.1162 68.5747 66.2131 64.1842 66.5842 63.0738C67.1202 61.4614 66.1699 60.7463 63.1678 63.502L62.5003 62.1907C65.9245 58.3042 72.9751 57.4253 70.5758 63.4466C69.0777 67.2062 68.0057 69.7446 67.3931 71.7032C66.4998 74.5572 68.7557 73.3996 70.9646 71.2709C71.265 71.7831 71.3631 71.9491 71.6635 72.5391C66.7589 77.4111 61.3144 77.8414 63.0088 72.24V72.24ZM72.3193 55.5035C71.2748 56.4316 69.7276 56.4111 68.8617 55.4584C67.9959 54.5058 68.1412 52.9835 69.1837 52.0554C70.2283 51.1273 71.7755 51.1499 72.6413 52.1005C73.5033 53.0552 73.3619 54.5775 72.3193 55.5035Z" fill="#F2F2F2"/>
</g>
<defs>
<filter id="filter0_d" x="0" y="0" width="134" height="134" filterUnits="userSpaceOnUse" color-interpolation-filters="sRGB">
<feFlood flood-opacity="0" result="BackgroundImageFix"/>
<feColorMatrix in="SourceAlpha" type="matrix" values="0 0 0 0 0 0 0 0 0 0 0 0 0 0 0 0 0 0 127 0"/>
<feOffset dy="4"/>
<feGaussianBlur stdDeviation="12.5"/>
<feColorMatrix type="matrix" values="0 0 0 0 0.607843 0 0 0 0 0.317647 0 0 0 0 0.878431 0 0 0 1 0"/>
<feBlend mode="normal" in2="BackgroundImageFix" result="effect1_dropShadow"/>
<feBlend mode="normal" in="SourceGraphic" in2="effect1_dropShadow" result="shape"/>
</filter>
<clipPath id="clip0">
<rect x="43.4395" y="39.439" width="47.122" height="49.1707" fill="white"/>
</clipPath>
</defs>
</svg>
