<svg xmlns="http://www.w3.org/2000/svg" xmlns:xlink="http://www.w3.org/1999/xlink" viewBox="0 0 48 48"><defs><style>.cls-1{fill:url(#radial-gradient);}.cls-2{fill:none;stroke:#fff;stroke-linecap:round;stroke-linejoin:round;stroke-width:2px;}</style><radialGradient id="radial-gradient" cx="-69.68" cy="1034.43" r="1" gradientTransform="matrix(0, 24, 24, 0, -24802.24, 1696.24)" gradientUnits="userSpaceOnUse"><stop offset="0" stop-color="#2f80ed"/><stop offset="1" stop-color="#2f80ed" stop-opacity="0.6"/></radialGradient></defs><title>Asset 1</title><g id="Layer_2" data-name="Layer 2"><g id="Layer_1-2" data-name="Layer 1"><path class="cls-1" d="M24,0h0A24,24,0,0,1,48,24h0A24,24,0,0,1,24,48h0A24,24,0,0,1,0,24H0A24,24,0,0,1,24,0Z"/><path class="cls-2" d="M15.36,19.2l6-4.66a5,5,0,0,1,6.14,0l6,4.66a5,5,0,0,1,1.93,3.95v11A2.44,2.44,0,0,1,33,36.57H15.87a2.44,2.44,0,0,1-2.44-2.44v-11A5,5,0,0,1,15.36,19.2Z"/><path class="cls-2" d="M20.43,36.57V28a3.5,3.5,0,0,1,3.5-3.5h0a3.5,3.5,0,0,1,3.5,3.5v8.6"/></g></g></svg>