<svg xmlns="http://www.w3.org/2000/svg" xmlns:xlink="http://www.w3.org/1999/xlink" viewBox="0 0 60 60"><defs><style>.cls-1{fill:#fff;}.cls-2,.cls-3{fill:none;stroke-linecap:round;stroke-linejoin:round;stroke-width:3px;}.cls-2{stroke:url(#linear-gradient);}.cls-3{stroke:url(#linear-gradient-2);}</style><linearGradient id="linear-gradient" x1="-289.64" y1="-1729.99" x2="-289.64" y2="-1698.92" gradientTransform="translate(320.2 1744.36)" gradientUnits="userSpaceOnUse"><stop offset="0" stop-color="#333"/><stop offset="1" stop-color="#2f80ed"/></linearGradient><linearGradient id="linear-gradient-2" x1="-289.96" y1="-1715.07" x2="-289.96" y2="-1699.52" xlink:href="#linear-gradient"/></defs><title>amin-menu-home-small</title><g id="Layer_2" data-name="Layer 2"><g id="Layer_1-2" data-name="Layer 1"><g id="Layer_1-2-2" data-name="Layer 1-2"><path class="cls-1" d="M30,0h0A30,30,0,0,1,60,30h0A30,30,0,0,1,30,60h0A30,30,0,0,1,0,30H0A30,30,0,0,1,30,0Z"/><path class="cls-2" d="M17.9,24.44l10.8-8.35a3,3,0,0,1,3.67,0L43.2,24.44a3,3,0,0,1,1.16,2.4v15.3a3,3,0,0,1-3,3H19.8a3.06,3.06,0,0,1-3.05-3V26.81A3,3,0,0,1,17.9,24.44Z"/><path class="cls-3" d="M25.73,44.57v-12a3,3,0,0,1,3-3h3a3,3,0,0,1,3,3v12"/></g></g></g></svg>