<svg xmlns="http://www.w3.org/2000/svg" xmlns:xlink="http://www.w3.org/1999/xlink" viewBox="0 0 100 100"><defs><style>.cls-1{fill:#fff;}.cls-2,.cls-3{fill:none;stroke-linecap:round;stroke-linejoin:round;stroke-width:4px;}.cls-2{stroke:url(#linear-gradient);}.cls-3{stroke:url(#linear-gradient-2);}</style><linearGradient id="linear-gradient" x1="-513.11" y1="2178.12" x2="-513.11" y2="2127.28" gradientTransform="matrix(1, 0, 0, -1, 564, 2202.55)" gradientUnits="userSpaceOnUse"><stop offset="0" stop-color="#333"/><stop offset="1" stop-color="#2f80ed"/></linearGradient><linearGradient id="linear-gradient-2" x1="-513.61" y1="2153.31" x2="-513.61" y2="2128.25" xlink:href="#linear-gradient"/></defs><title>amin-menu-home</title><g id="Layer_2" data-name="Layer 2"><g id="Layer_1-2" data-name="Layer 1"><path class="cls-1" d="M50,0h0a50,50,0,0,1,50,50h0a50,50,0,0,1-50,50h0A50,50,0,0,1,0,50H0A50,50,0,0,1,50,0Z"/><path class="cls-2" d="M29.83,40.73l18-13.92a5,5,0,0,1,6.12,0L72,40.73a5,5,0,0,1,1.94,4v25.5a5.08,5.08,0,0,1-5.08,5.09H33a5.09,5.09,0,0,1-5.08-5.09V44.69A5,5,0,0,1,29.83,40.73Z"/><path class="cls-3" d="M42.89,74.28v-20a5,5,0,0,1,5-5h5a5,5,0,0,1,5,5v20"/></g></g></svg>