<svg xmlns="http://www.w3.org/2000/svg" xmlns:xlink="http://www.w3.org/1999/xlink" viewBox="0 0 48 48"><defs><style>.cls-1{fill:url(#radial-gradient);}.cls-2{fill:none;stroke:#fff;stroke-linecap:round;stroke-linejoin:round;stroke-width:2px;}</style><radialGradient id="radial-gradient" cx="-217.45" cy="955.97" r="1" gradientTransform="matrix(0, 24, 24, 0, -22919.32, 5242.77)" gradientUnits="userSpaceOnUse"><stop offset="0" stop-color="#eb5757"/><stop offset="1" stop-color="#eb5757" stop-opacity="0.6"/></radialGradient></defs><title>Asset 2</title><g id="Layer_2" data-name="Layer 2"><g id="Layer_1-2" data-name="Layer 1"><path class="cls-1" d="M24,0h0A24,24,0,0,1,48,24h0A24,24,0,0,1,24,48h0A24,24,0,0,1,0,24H0A24,24,0,0,1,24,0Z"/><path class="cls-2" d="M15.06,19.44l6-4.66a5,5,0,0,1,6.13,0l6,4.66a5,5,0,0,1,1.94,3.95v11a2.44,2.44,0,0,1-2.44,2.44H15.57a2.44,2.44,0,0,1-2.44-2.44v-11A5,5,0,0,1,15.06,19.44Z"/><path class="cls-2" d="M20.13,35.81V28a3.5,3.5,0,0,1,3.5-3.5h0a3.5,3.5,0,0,1,3.5,3.5v7.84"/></g></g></svg>