<svg xmlns="http://www.w3.org/2000/svg" xmlns:xlink="http://www.w3.org/1999/xlink" viewBox="0 0 100 100"><defs><style>.cls-1{fill:#fff;}.cls-2,.cls-3{fill:none;stroke-linecap:round;stroke-linejoin:round;stroke-width:4px;}.cls-2{stroke:url(#linear-gradient);}.cls-3{stroke:url(#linear-gradient-2);}</style><linearGradient id="linear-gradient" x1="-513.98" y1="1899.89" x2="-513.98" y2="1849.05" gradientTransform="matrix(1, 0, 0, -1, 564, 1924.1)" gradientUnits="userSpaceOnUse"><stop offset="0" stop-color="#333"/><stop offset="1" stop-color="#eb5757"/></linearGradient><linearGradient id="linear-gradient-2" x1="-513.48" y1="1875.08" x2="-513.48" y2="1850.02" xlink:href="#linear-gradient"/></defs><title>ayanthi-menu-home</title><g id="Layer_2" data-name="Layer 2"><g id="Layer_1-2" data-name="Layer 1"><path class="cls-1" d="M50,0h0a50,50,0,0,1,50,50h0a50,50,0,0,1-50,50h0A50,50,0,0,1,0,50H0A50,50,0,0,1,50,0Z"/><path class="cls-2" d="M29,40.51,47,26.58a5,5,0,0,1,6.12,0l18,13.93a5,5,0,0,1,1.94,4V70a5.08,5.08,0,0,1-5.08,5.09H32.11A5.09,5.09,0,0,1,27,70V44.46A5,5,0,0,1,29,40.51Z"/><path class="cls-3" d="M43,74.05v-20a5,5,0,0,1,5-5h5a5,5,0,0,1,5,5v20"/></g></g></svg>