<svg xmlns="http://www.w3.org/2000/svg" xmlns:xlink="http://www.w3.org/1999/xlink" viewBox="0 0 100 100"><defs><style>.cls-1{fill:#fff;}.cls-2,.cls-3{fill:none;stroke-linecap:round;stroke-linejoin:round;stroke-width:4px;}.cls-2{stroke:url(#linear-gradient);}.cls-3{stroke:url(#linear-gradient-2);}</style><linearGradient id="linear-gradient" x1="-513.73" y1="1951.27" x2="-513.73" y2="1900.42" gradientTransform="matrix(1, 0, 0, -1, 564, 1974.84)" gradientUnits="userSpaceOnUse"><stop offset="0" stop-color="#333"/><stop offset="1" stop-color="#9b51e0"/></linearGradient><linearGradient id="linear-gradient-2" x1="-513.23" y1="1925.45" x2="-513.23" y2="1900.39" xlink:href="#linear-gradient"/></defs><title>ben-menu-home</title><g id="Layer_2" data-name="Layer 2"><g id="Layer_1-2" data-name="Layer 1"><path class="cls-1" d="M50,0h0a50,50,0,0,1,50,50h0a50,50,0,0,1-50,50h0A50,50,0,0,1,0,50H0A50,50,0,0,1,50,0Z"/><path class="cls-2" d="M29.21,39.88,47.21,26a5,5,0,0,1,6.11,0l18,13.93a5,5,0,0,1,2,3.95V69.34a5.08,5.08,0,0,1-5.09,5.08H32.35a5.07,5.07,0,0,1-5.08-5.08V43.83A5,5,0,0,1,29.21,39.88Z"/><path class="cls-3" d="M43.27,74.42v-20a5,5,0,0,1,5-5h5a5,5,0,0,1,5,5v20"/></g></g></svg>