<svg xmlns="http://www.w3.org/2000/svg" xmlns:xlink="http://www.w3.org/1999/xlink" viewBox="0 0 60 60"><defs><style>.cls-1{fill:#fff;}.cls-2,.cls-3{fill:none;stroke-linecap:round;stroke-linejoin:round;stroke-width:3px;}.cls-2{stroke:url(#linear-gradient);}.cls-3{stroke:url(#linear-gradient-2);}</style><linearGradient id="linear-gradient" x1="-290.02" y1="-1502.8" x2="-290.02" y2="-1471.72" gradientTransform="translate(320.2 1516.64)" gradientUnits="userSpaceOnUse"><stop offset="0" stop-color="#333"/><stop offset="1" stop-color="#9b51e0"/></linearGradient><linearGradient id="linear-gradient-2" x1="-289.73" y1="-1487.27" x2="-289.73" y2="-1471.72" xlink:href="#linear-gradient"/></defs><title>ben-menu-home-small</title><g id="Layer_2" data-name="Layer 2"><g id="Layer_1-2" data-name="Layer 1"><g id="Layer_1-2-2" data-name="Layer 1-2"><path class="cls-1" d="M30,0h0A30,30,0,0,1,60,30h0A30,30,0,0,1,30,60h0A30,30,0,0,1,0,30H0A30,30,0,0,1,30,0Z"/><path class="cls-2" d="M17.53,23.93l10.8-8.33a3,3,0,0,1,3.66,0L42.79,24A3,3,0,0,1,44,26.33V41.6a3,3,0,0,1-3.05,3H19.41a3,3,0,0,1-3.05-3V26.3A3,3,0,0,1,17.53,23.93Z"/><path class="cls-3" d="M26,44.65v-12a3,3,0,0,1,3-3h3a3,3,0,0,1,3,3v12"/></g></g></g></svg>