<svg xmlns="http://www.w3.org/2000/svg" xmlns:xlink="http://www.w3.org/1999/xlink" viewBox="0 0 60 60"><defs><style>.cls-1{fill:#fff;}.cls-2,.cls-3{fill:none;stroke-linecap:round;stroke-linejoin:round;stroke-width:3px;}.cls-2{stroke:url(#linear-gradient);}.cls-3{stroke:url(#linear-gradient-2);}</style><linearGradient id="linear-gradient" x1="-290.2" y1="-1808.05" x2="-290.2" y2="-1776.97" gradientTransform="translate(320.2 1822.43)" gradientUnits="userSpaceOnUse"><stop offset="0" stop-color="#333"/><stop offset="1" stop-color="#219653"/></linearGradient><linearGradient id="linear-gradient-2" x1="-289.9" y1="-1793.12" x2="-289.9" y2="-1777.57" xlink:href="#linear-gradient"/></defs><title>lucy-menu-home-small</title><g id="Layer_2" data-name="Layer 2"><g id="Layer_1-2" data-name="Layer 1"><g id="Layer_1-2-2" data-name="Layer 1-2"><path class="cls-1" d="M30,0h0A30,30,0,0,1,60,30h0A30,30,0,0,1,30,60h0A30,30,0,0,1,0,30H0A30,30,0,0,1,30,0Z"/><path class="cls-2" d="M17.36,24.46l10.8-8.35a3,3,0,0,1,3.68,0l10.8,8.35a3,3,0,0,1,1.16,2.37V42.14a3,3,0,0,1-3,3H19.25a3,3,0,0,1-3.05-3h0V26.83A3,3,0,0,1,17.36,24.46Z"/><path class="cls-3" d="M25.8,44.59v-12a3,3,0,0,1,3-3h3a3,3,0,0,1,3,3v12"/></g></g></g></svg>