<svg xmlns="http://www.w3.org/2000/svg" xmlns:xlink="http://www.w3.org/1999/xlink" viewBox="0 0 100 100"><defs><style>.cls-1{fill:#fff;}.cls-2,.cls-3{fill:none;stroke-linecap:round;stroke-linejoin:round;stroke-width:4px;}.cls-2{stroke:url(#linear-gradient);}.cls-3{stroke:url(#linear-gradient-2);}</style><linearGradient id="linear-gradient" x1="-514" y1="2256.16" x2="-514" y2="2205.31" gradientTransform="matrix(1, 0, 0, -1, 564, 2280.63)" gradientUnits="userSpaceOnUse"><stop offset="0" stop-color="#333"/><stop offset="1" stop-color="#219653"/></linearGradient><linearGradient id="linear-gradient-2" x1="-513.5" y1="2231.34" x2="-513.5" y2="2206.28" xlink:href="#linear-gradient"/></defs><title>lucy-menu-home</title><g id="Layer_2" data-name="Layer 2"><g id="Layer_1-2" data-name="Layer 1"><path class="cls-1" d="M50,0h0a50,50,0,0,1,50,50h0a50,50,0,0,1-50,50h0A50,50,0,0,1,0,50H0A50,50,0,0,1,50,0Z"/><path class="cls-2" d="M28.94,40.77l18-13.92a5,5,0,0,1,6.12,0l18,13.92A5,5,0,0,1,73,44.72V70.23a5.08,5.08,0,0,1-5.08,5.08H32.08A5.08,5.08,0,0,1,27,70.23V44.72A5,5,0,0,1,28.94,40.77Z"/><path class="cls-3" d="M43,74.31v-20a5,5,0,0,1,5-5h5a5,5,0,0,1,5,5v20"/></g></g></svg>