<svg xmlns="http://www.w3.org/2000/svg" xmlns:xlink="http://www.w3.org/1999/xlink" viewBox="0 0 124.39 124.39"><defs><style>.cls-1{fill:#f2f2f2;}.cls-2{fill:url(#linear-gradient);}.cls-3{fill:url(#linear-gradient-2);}.cls-4{fill:url(#linear-gradient-3);}.cls-5{fill:url(#linear-gradient-4);}.cls-6{fill:url(#linear-gradient-5);}.cls-7{fill:url(#linear-gradient-6);}.cls-8{fill:url(#linear-gradient-7);}.cls-9{fill:url(#linear-gradient-8);}.cls-10{fill:url(#linear-gradient-9);}.cls-11{fill:url(#linear-gradient-10);}.cls-12{fill:url(#linear-gradient-11);}</style><linearGradient id="linear-gradient" x1="62.06" y1="94.41" x2="62.06" y2="17.13" gradientTransform="matrix(1, 0, 0, -1, 0, 118.56)" gradientUnits="userSpaceOnUse"><stop offset="0" stop-color="#4f4f4f"/><stop offset="1" stop-color="#eb5757"/></linearGradient><linearGradient id="linear-gradient-2" x1="62.62" y1="86.39" x2="62.62" y2="17.11" xlink:href="#linear-gradient"/><linearGradient id="linear-gradient-3" x1="61.83" y1="94.4" x2="61.83" y2="67.5" xlink:href="#linear-gradient"/><linearGradient id="linear-gradient-4" x1="42.34" y1="90.72" x2="42.34" y2="56.67" xlink:href="#linear-gradient"/><linearGradient id="linear-gradient-5" x1="79.15" y1="69.84" x2="79.15" y2="56.41" xlink:href="#linear-gradient"/><linearGradient id="linear-gradient-6" x1="62.67" y1="85.97" x2="62.67" y2="17.55" xlink:href="#linear-gradient"/><linearGradient id="linear-gradient-7" x1="61.7" y1="93.98" x2="61.7" y2="67.92" xlink:href="#linear-gradient"/><linearGradient id="linear-gradient-8" x1="42.34" y1="90.3" x2="42.34" y2="57.72" xlink:href="#linear-gradient"/><linearGradient id="linear-gradient-9" x1="79.16" y1="69.3" x2="79.16" y2="56.8" xlink:href="#linear-gradient"/><linearGradient id="linear-gradient-10" x1="87.41" y1="85.33" x2="87.41" y2="77.52" xlink:href="#linear-gradient"/><linearGradient id="linear-gradient-11" x1="45.48" y1="89.67" x2="45.48" y2="88.37" xlink:href="#linear-gradient"/></defs><title>Asset 1</title><g id="Layer_2" data-name="Layer 2"><g id="Layer_1-2" data-name="Layer 1"><path class="cls-1" d="M62.2,0h0a62.19,62.19,0,0,1,62.19,62.2h0A62.19,62.19,0,0,1,62.2,124.39h0A62.19,62.19,0,0,1,0,62.2H0A62.2,62.2,0,0,1,62.2,0Z"/><path class="cls-2" d="M65.94,89.39l-.08,0a1.34,1.34,0,0,1,.06-.12c.43-1,.91-2,1.3-3.07a36.68,36.68,0,0,0,2.3-11.3A39.16,39.16,0,0,0,69,66.28a11.49,11.49,0,0,1,.39-5.43,18.51,18.51,0,0,1,4.76-7.37,36.82,36.82,0,0,1,5.3-4.33c3.45-2.36,6.93-4.71,10.38-7.08a1.16,1.16,0,0,0,.45-.6,2.91,2.91,0,0,0,0-1.06,11.74,11.74,0,0,0-1.09-3.3,15.52,15.52,0,0,0-2.64-4.19c-.68-.73-1.26-1.05-2.11-.47l-.17.07c-3.46,1.49-6.91,3-10.48,4.22a7,7,0,0,1-3.29.56,3.91,3.91,0,0,1-2.83-1.46,1.17,1.17,0,0,0-1.08-.56,11.16,11.16,0,0,0-3.76.68A8.6,8.6,0,0,0,59.2,38a2,2,0,0,0-.49,2.38,8.89,8.89,0,0,1,.36.93,1.28,1.28,0,0,1-.47,1.58c-.39.28-.84.45-1.24.7a16.4,16.4,0,0,0-2,1.29,15,15,0,0,0-2.9,3.76,11,11,0,0,1-2.18,3c.43.39.84.75,1.24,1.15a25.42,25.42,0,0,1,4.86,7.12A48.36,48.36,0,0,1,59.91,70c.13.52.23,1,.35,1.57a1.06,1.06,0,0,1-.24-.42c-.82-2.33-1.59-4.66-2.48-7a36.5,36.5,0,0,0-4-7.68A18.66,18.66,0,0,0,49,51.72a2.92,2.92,0,0,0-2.12-.55,8.61,8.61,0,0,0-4.09,1.95,19.88,19.88,0,0,0-3.49,3.67,24.5,24.5,0,0,0-4.09,8.4,6.22,6.22,0,0,0-.26,1.6,16.17,16.17,0,0,0,1,5.15c.68,2,1.36,4,2.23,5.89a43.89,43.89,0,0,0,6.31,9.39,69.54,69.54,0,0,0,5.56,6,47,47,0,0,0,7.3,5.88,14.86,14.86,0,0,0,4.2,2,11.1,11.1,0,0,0,8.25-1,22.13,22.13,0,0,0,6-4.86,47.17,47.17,0,0,0,6.85-10.06A54.39,54.39,0,0,0,85.8,78,35.53,35.53,0,0,0,88,68.6a13.63,13.63,0,0,0-1.08-6.34c-.15-.35-.32-.69-.47-1a17.18,17.18,0,0,1-2,.7c-1.37.33-2.74.63-4.13.84a14.32,14.32,0,0,1-6-.33,3.91,3.91,0,0,1-3.13-3s0,0-.08-.06c-.14.32-.29.63-.42.94A11.61,11.61,0,0,0,70,66.66a35.89,35.89,0,0,1,.3,8.48A34.94,34.94,0,0,1,67,87.33C66.69,88,66.31,88.72,65.94,89.39Zm1.69-59.67c-.36,0-.46-.13-.49-.42-.07-.78-.16-1.55-.25-2.32-.1-.94-.2-1.87-.3-2.83l-5.13.19c-.07,1.64-.13,3.25-.2,4.86l-.34,0c-.31.1-.49,0-.61-.32a7.49,7.49,0,0,0-.44-.9l-1.55-3.08-4.74,1.94c.41,1.25.81,2.48,1.22,3.72-.51.22-1,.44-1.46.62a7.07,7.07,0,0,0-3.15,2.54,14.61,14.61,0,0,0-2.68,11.35,18.46,18.46,0,0,0,1.71,5.57c.22.43.46.48.8.14a5.86,5.86,0,0,0,.69-.87c.76-1.18,1.48-2.38,2.27-3.53A9.63,9.63,0,0,1,56.79,43c.34-.17.71-.3,1-.5.57-.36.59-.55.35-1.17a6,6,0,0,1-.47-1.59A3.1,3.1,0,0,1,59.13,37a11.43,11.43,0,0,1,4.31-2,10.47,10.47,0,0,1,3.43-.44,1.42,1.42,0,0,1,1.28.64,2.34,2.34,0,0,0,1.16,1,4.15,4.15,0,0,0,2.88.24c1.16-.31,2.31-.69,3.46-1.05a7.63,7.63,0,0,0,.76-.33,21.2,21.2,0,0,0-3.1-2.7.34.34,0,0,1-.17-.45c.37-1.25.74-2.49,1.09-3.74.14-.48.27-1,.41-1.48l-4.81-1.75C69.09,26.52,68.37,28.12,67.63,29.72ZM48.14,50.43c0-.12,0-.17,0-.22A15.63,15.63,0,0,1,47,46.62a17.59,17.59,0,0,1-.41-5.6,15,15,0,0,1,4-8.87.57.57,0,0,0,.12-.33c.08-.64.13-1.28.21-1.92s0-1-.67-1.27A9.58,9.58,0,0,0,48.05,28a18,18,0,0,0-4.7-.07,6.94,6.94,0,0,0-2.63.66,1.14,1.14,0,0,0-.66.84c-.14.82-.25,1.64-.41,2.46-.49,2.43-1,4.87-1.5,7.29a44,44,0,0,1-1.92,6.4,36.79,36.79,0,0,0-2.3,8.3,12.65,12.65,0,0,0,.79,6.53c.19.47.45.92.71,1.45l.17-.33c.51-1,1-2,1.52-3A21.3,21.3,0,0,1,42,52.69a11.51,11.51,0,0,1,3.15-1.9A5.56,5.56,0,0,1,48.14,50.43Zm34.12-1.71c-1.06.72-2.13,1.41-3.16,2.14a29.59,29.59,0,0,0-6,5.42,5.46,5.46,0,0,0-.88,1.41c-.58,1.49-.33,2.84,1.25,3.6a7.87,7.87,0,0,0,2.16.68,18,18,0,0,0,6-.15,17,17,0,0,0,4.25-1.25c.13-.06.31-.21.33-.33a12.26,12.26,0,0,0,.14-1.81,13.31,13.31,0,0,0-1.1-5.16A14.42,14.42,0,0,0,82.26,48.72Z"/><path class="cls-3" d="M66,89.39c.35-.68.74-1.35,1.07-2a35.37,35.37,0,0,0,3.27-12.18,36,36,0,0,0-.3-8.49,11.67,11.67,0,0,1,.65-6.3c.13-.32.28-.62.42-.94,0,0,.08,0,.08.06a3.94,3.94,0,0,0,3.14,3,14.12,14.12,0,0,0,6,.32c1.39-.2,2.77-.51,4.13-.83.65-.16,1.28-.46,2-.7.16.31.33.65.47,1A13.53,13.53,0,0,1,88,68.62,35.93,35.93,0,0,1,85.8,78a55.75,55.75,0,0,1-3.14,7.12,47.38,47.38,0,0,1-6.84,10.06,22.21,22.21,0,0,1-6,4.86,11.14,11.14,0,0,1-8.25,1,15.14,15.14,0,0,1-4.2-2A48.07,48.07,0,0,1,50,93.2a69.54,69.54,0,0,1-5.56-6,43.47,43.47,0,0,1-6.3-9.39c-.88-1.9-1.55-3.91-2.24-5.89a16.22,16.22,0,0,1-1-5.15,5.76,5.76,0,0,1,.26-1.6,24.59,24.59,0,0,1,4.09-8.4,20,20,0,0,1,3.5-3.67,8.56,8.56,0,0,1,4.09-2,2.84,2.84,0,0,1,2.11.55,18.86,18.86,0,0,1,4.6,4.83,36.46,36.46,0,0,1,3.95,7.68c.88,2.29,1.66,4.63,2.48,6.94a1,1,0,0,0,.24.42c-.11-.51-.22-1-.34-1.56A49.36,49.36,0,0,0,56.4,60a25.13,25.13,0,0,0-4.86-7.12c-.4-.39-.81-.76-1.24-1.16a10.85,10.85,0,0,0,2.18-3,14.9,14.9,0,0,1,2.9-3.75,16.52,16.52,0,0,1,2-1.29c.4-.25.85-.43,1.23-.7a1.28,1.28,0,0,0,.48-1.58,9.47,9.47,0,0,0-.37-.93,2,2,0,0,1,.49-2.39A8.8,8.8,0,0,1,62.82,36a11.43,11.43,0,0,1,3.76-.69,1.16,1.16,0,0,1,1.08.57,4,4,0,0,0,2.84,1.46,7,7,0,0,0,3.28-.57c3.58-1.21,7-2.72,10.48-4.22a.44.44,0,0,0,.17-.07c.85-.57,1.43-.25,2.12.48a15.25,15.25,0,0,1,2.63,4.19,11.74,11.74,0,0,1,1.09,3.3,2.85,2.85,0,0,1,0,1,1.17,1.17,0,0,1-.44.61c-3.46,2.37-6.94,4.71-10.39,7.08a35.53,35.53,0,0,0-5.3,4.33,18.24,18.24,0,0,0-4.75,7.37A11.37,11.37,0,0,0,69,66.3a39.74,39.74,0,0,1,.56,8.58,36.68,36.68,0,0,1-2.3,11.29c-.4,1-.87,2-1.3,3.07a.69.69,0,0,0,0,.13ZM60.83,74.6c-.17-.42-.36-.83-.51-1.25-.6-1.78-1.17-3.57-1.78-5.35a54.53,54.53,0,0,0-3.92-9,22,22,0,0,0-5.08-6.35,3.21,3.21,0,0,0-3-1,9.93,9.93,0,0,0-1.58.57A12.37,12.37,0,0,0,41.39,55,23.93,23.93,0,0,0,36,64.11a8.57,8.57,0,0,0-.49,4.29A40,40,0,0,0,38.19,77,37.52,37.52,0,0,0,43,84.72a69.4,69.4,0,0,0,7.14,8,43.3,43.3,0,0,0,8.8,6.84,10.46,10.46,0,0,0,8.1,1.12,15.38,15.38,0,0,0,6-3.37,35.61,35.61,0,0,0,6.66-7.92,57.07,57.07,0,0,0,4.18-7.73,46.84,46.84,0,0,0,2.76-7.76,24.27,24.27,0,0,0,.92-6.78,12.8,12.8,0,0,0-1.37-5.27l-.16,0a20.47,20.47,0,0,1-10.18,1.38C73.91,63,72.1,62.5,71,60.65c0,0-.07,0-.07.05a9.77,9.77,0,0,0-.74,4.39c.15,1.79.43,3.57.53,5.36A34.74,34.74,0,0,1,69.18,83a30.83,30.83,0,0,1-4,8.34,16.83,16.83,0,0,1-2.53,2.74.66.66,0,0,1,.12-.27c.6-1,1.25-1.9,1.8-2.9A34.37,34.37,0,0,0,68.07,82a38.28,38.28,0,0,0,1.05-8,43.36,43.36,0,0,0-.62-7.87,12.37,12.37,0,0,1,1.34-7.62,21.62,21.62,0,0,1,5.79-7c1.88-1.52,3.87-2.91,5.85-4.3q3.83-2.69,7.72-5.23a1.4,1.4,0,0,0,.67-1.63c0-.11-.05-.22-.08-.33a18,18,0,0,0-2.84-6,10.54,10.54,0,0,0-1.21-1.3.69.69,0,0,0-.83-.09c-.43.2-.86.38-1.29.57-3.3,1.43-6.6,2.85-10,4a6.57,6.57,0,0,1-3.4.43,4.38,4.38,0,0,1-2.9-1.59.92.92,0,0,0-.84-.41,4,4,0,0,0-.49,0,13,13,0,0,0-3.64.9,7.69,7.69,0,0,0-2.79,1.69,1.72,1.72,0,0,0-.38,2.17,7.51,7.51,0,0,1,.34.94A1.55,1.55,0,0,1,59,43.17a7,7,0,0,1-1.49.89,7.5,7.5,0,0,0-3,2.41c-.81,1.11-1.53,2.29-2.29,3.43-.41.62-.84,1.24-1.19,1.76.32.37.62.74,1,1.1a25.84,25.84,0,0,1,4.77,7.09A47.65,47.65,0,0,1,60,68.67,16.86,16.86,0,0,1,60.83,74.6Z"/><path class="cls-4" d="M67.64,29.72c.72-1.61,1.45-3.2,2.18-4.83,1.61.58,3.19,1.15,4.81,1.75-.14.51-.27,1-.41,1.48-.36,1.25-.72,2.5-1.09,3.74a.35.35,0,0,0,.17.45A19.68,19.68,0,0,1,76.4,35a8,8,0,0,1-.76.33c-1.15.36-2.29.74-3.45,1a4.24,4.24,0,0,1-2.89-.24,2.38,2.38,0,0,1-1.16-1,1.39,1.39,0,0,0-1.27-.64,10.3,10.3,0,0,0-3.44.44,11.5,11.5,0,0,0-4.31,2,3.14,3.14,0,0,0-1.42,2.75,6.45,6.45,0,0,0,.47,1.59c.25.63.23.82-.35,1.17a10,10,0,0,1-1,.51A9.5,9.5,0,0,0,53,46.42c-.8,1.16-1.51,2.36-2.28,3.54a5.28,5.28,0,0,1-.69.87c-.34.35-.57.29-.8-.14a18.22,18.22,0,0,1-1.7-5.58,14.2,14.2,0,0,1-.08-4.69,14.94,14.94,0,0,1,2.75-6.66,7.06,7.06,0,0,1,3.15-2.53c.49-.18,1-.4,1.46-.62-.41-1.24-.81-2.47-1.22-3.72l4.74-1.95L59.86,28c.15.3.33.59.45.9a.43.43,0,0,0,.61.32l.33,0c.07-1.61.13-3.23.2-4.86l5.13-.19c.11,1,.21,1.89.3,2.82s.18,1.55.25,2.33C67.18,29.59,67.27,29.75,67.64,29.72Zm-18,20.92a3.67,3.67,0,0,0,.42-.47l2.1-3.29a11,11,0,0,1,5.17-4.6c.68-.26.69-.37.38-1a3.73,3.73,0,0,1-.41-2,4,4,0,0,1,1.87-2.86,11.87,11.87,0,0,1,3.74-1.8A11.6,11.6,0,0,1,66.69,34a2,2,0,0,1,2,1,1,1,0,0,0,.36.37,3.69,3.69,0,0,0,2.88.56,16.37,16.37,0,0,0,1.67-.43c.7-.21,1.38-.45,2.13-.7A14.19,14.19,0,0,0,73,32.59a.54.54,0,0,1-.27-.74c.46-1.53.88-3.07,1.34-4.59.1-.31,0-.41-.27-.5-.63-.21-1.26-.46-1.89-.69L70,25.42c-.73,1.64-1.46,3.23-2.18,4.82-.29-.07-.52-.14-.77-.18s-.31-.14-.33-.36c-.1-1-.19-2-.31-3-.07-.7-.17-1.39-.25-2.11l-4.33.16c-.06,1.64-.12,3.24-.18,4.87-.38,0-.74,0-1.07.09a.41.41,0,0,1-.52-.28c-.42-.87-.85-1.73-1.28-2.59-.22-.45-.46-.9-.69-1.36l-4,1.64c.42,1.27.81,2.5,1.22,3.74-.69.29-1.35.56-2,.86a5.46,5.46,0,0,0-1.72,1.09,13.65,13.65,0,0,0-3.87,9.38,17.8,17.8,0,0,0,1,6.13C49,49.07,49.29,49.81,49.63,50.64Z"/><path class="cls-5" d="M48.14,50.43a5.73,5.73,0,0,0-3,.35A11.76,11.76,0,0,0,42,52.68a21,21,0,0,0-4.89,5.9c-.56,1-1,2-1.52,3l-.17.33c-.26-.53-.52-1-.71-1.45a12.63,12.63,0,0,1-.79-6.52,36.73,36.73,0,0,1,2.3-8.31,44.84,44.84,0,0,0,1.92-6.4c.53-2.42,1-4.86,1.5-7.29.16-.81.27-1.64.41-2.46a1.16,1.16,0,0,1,.66-.84A6.9,6.9,0,0,1,43.36,28a17.61,17.61,0,0,1,4.7.07,10.16,10.16,0,0,1,2.11.59c.64.26.75.59.67,1.28s-.13,1.28-.21,1.91a.64.64,0,0,1-.13.34A15,15,0,0,0,46.56,41a17.59,17.59,0,0,0,.41,5.6,15.71,15.71,0,0,0,1.14,3.6A.85.85,0,0,0,48.14,50.43Zm-.65-.5c0-.13-.07-.23-.09-.32-.35-1.28-.76-2.53-1-3.84a15.65,15.65,0,0,1,.27-7.6A14.87,14.87,0,0,1,50,32a.9.9,0,0,0,.2-.49c.09-.55.13-1.11.21-1.65s0-.75-.5-.95a6,6,0,0,0-1-.32,15.56,15.56,0,0,0-5.09-.27,18.23,18.23,0,0,0-2.63.51.87.87,0,0,0-.75.89,7.2,7.2,0,0,1-.16,1c-.56,2.8-1.1,5.61-1.69,8.4a43.33,43.33,0,0,1-1.86,6.3,40.73,40.73,0,0,0-2.23,7.3A13.58,13.58,0,0,0,34.66,59c.18.65.45,1.29.67,1.89.88-1.46,1.67-2.9,2.58-4.26a17.82,17.82,0,0,1,4.83-5A8.26,8.26,0,0,1,47.49,49.93Z"/><path class="cls-6" d="M82.26,48.72a14.28,14.28,0,0,1,3,4.55,13.43,13.43,0,0,1,1.09,5.15,13.79,13.79,0,0,1-.14,1.81c0,.12-.19.27-.32.33a18,18,0,0,1-4.25,1.25,17.5,17.5,0,0,1-6,.15,7.76,7.76,0,0,1-2.16-.68,2.56,2.56,0,0,1-1.26-3.6,5.2,5.2,0,0,1,.88-1.41,29.51,29.51,0,0,1,6-5.41C80.13,50.13,81.19,49.44,82.26,48.72Zm-.08.55c-1,.71-2.07,1.39-3.08,2.11a30.46,30.46,0,0,0-5.49,5,4.07,4.07,0,0,0-1.2,2.53,1.86,1.86,0,0,0,.9,1.83,7.55,7.55,0,0,0,1.81.76,12.73,12.73,0,0,0,4.31.23,19.22,19.22,0,0,0,6.07-1.43c.13,0,.29-.2.29-.32a15.06,15.06,0,0,0,.1-2.22,13.89,13.89,0,0,0-1.68-5.61A13,13,0,0,0,82.18,49.27Z"/><path class="cls-7" d="M60.83,74.6a17.68,17.68,0,0,0-.83-6,48.12,48.12,0,0,0-3.19-8.82A26.35,26.35,0,0,0,52,52.71c-.34-.34-.64-.73-1-1.1.36-.52.78-1.13,1.2-1.76.76-1.14,1.48-2.32,2.29-3.42a7.25,7.25,0,0,1,3-2.41,7.24,7.24,0,0,0,1.5-.89,1.55,1.55,0,0,0,.49-1.72,6.36,6.36,0,0,0-.35-.95,1.7,1.7,0,0,1,.38-2.16,8,8,0,0,1,2.79-1.7A13.45,13.45,0,0,1,66,35.71a4,4,0,0,1,.49,0,.9.9,0,0,1,.84.41,4.42,4.42,0,0,0,2.89,1.59,6.61,6.61,0,0,0,3.41-.43c3.41-1.15,6.71-2.56,10-4,.44-.18.87-.36,1.29-.57a.7.7,0,0,1,.84.1A9.91,9.91,0,0,1,87,34.08a18.15,18.15,0,0,1,2.84,6c0,.11.05.22.07.33A1.38,1.38,0,0,1,89.23,42q-3.9,2.55-7.72,5.23c-2,1.39-4,2.78-5.85,4.3a21.76,21.76,0,0,0-5.79,7,12.4,12.4,0,0,0-1.34,7.62A43.22,43.22,0,0,1,69.15,74a39,39,0,0,1-1.05,8,34.94,34.94,0,0,1-3.5,8.92c-.56,1-1.2,1.93-1.81,2.9a1.19,1.19,0,0,0-.11.26,16.79,16.79,0,0,0,2.53-2.73,30.65,30.65,0,0,0,4-8.34A35,35,0,0,0,70.79,70.4c-.1-1.79-.38-3.57-.53-5.35A9.6,9.6,0,0,1,71,60.66s0,0,.07,0c1.06,1.84,2.88,2.38,4.81,2.62a20.6,20.6,0,0,0,10.18-1.38l.16-.05a13,13,0,0,1,1.36,5.28,24,24,0,0,1-.92,6.78,47.29,47.29,0,0,1-2.75,7.75,57.18,57.18,0,0,1-4.18,7.74,35.61,35.61,0,0,1-6.67,7.92,15.42,15.42,0,0,1-6,3.37A10.45,10.45,0,0,1,59,99.51a43.55,43.55,0,0,1-8.81-6.84,69.32,69.32,0,0,1-7.13-8,36.94,36.94,0,0,1-4.8-7.75,39,39,0,0,1-2.72-8.58A8.6,8.6,0,0,1,36,64.06a24.07,24.07,0,0,1,5.42-9.12A12.77,12.77,0,0,1,45,52.19a10.45,10.45,0,0,1,1.57-.56,3.22,3.22,0,0,1,3,1A22.49,22.49,0,0,1,54.65,59a54.12,54.12,0,0,1,3.91,9c.61,1.77,1.19,3.57,1.79,5.34A10,10,0,0,0,60.83,74.6ZM85.48,33.23c-.3,1.42,2.31,6.8,3.89,7.81A16.78,16.78,0,0,0,85.48,33.23Z"/><path class="cls-8" d="M49.63,50.65c-.34-.84-.68-1.58-.93-2.34a18.05,18.05,0,0,1-1-6.13A13.74,13.74,0,0,1,51.6,32.8a5.46,5.46,0,0,1,1.72-1.09c.65-.3,1.32-.57,2-.86-.41-1.24-.82-2.48-1.22-3.73l4-1.64c.23.46.47.91.69,1.36.43.86.86,1.73,1.28,2.59.12.23.24.33.51.28s.7-.07,1.08-.1c.06-1.62.12-3.22.18-4.86l4.33-.17c.09.72.18,1.41.25,2.11.1,1,.21,2,.31,3a.34.34,0,0,0,.33.36c.24,0,.48.11.77.18.72-1.6,1.44-3.2,2.18-4.82l1.83.65c.62.23,1.25.47,1.89.68.28.1.36.2.27.51-.46,1.53-.88,3.06-1.34,4.58a.53.53,0,0,0,.27.74,15,15,0,0,1,2.73,2.3c-.75.25-1.44.5-2.13.7a14.07,14.07,0,0,1-1.67.42A3.63,3.63,0,0,1,69,35.47a1.09,1.09,0,0,1-.37-.37,2,2,0,0,0-2-1.05,12.21,12.21,0,0,0-3.79.6,11.82,11.82,0,0,0-3.75,1.8,4,4,0,0,0-1.86,2.86,3.62,3.62,0,0,0,.41,2c.3.65.29.76-.38,1a10.87,10.87,0,0,0-5.17,4.6c-.71,1.09-1.4,2.19-2.11,3.29C50,50.31,49.82,50.43,49.63,50.65Z"/><path class="cls-9" d="M47.49,49.93a8.19,8.19,0,0,0-4.75,1.69,17.82,17.82,0,0,0-4.83,5C37,58,36.2,59.39,35.33,60.84c-.21-.59-.48-1.23-.67-1.89a13.58,13.58,0,0,1-.12-6.18,42.32,42.32,0,0,1,2.2-7.3,43.33,43.33,0,0,0,1.86-6.3c.59-2.8,1.13-5.59,1.69-8.4a6,6,0,0,0,.16-1,.87.87,0,0,1,.75-.89,18.49,18.49,0,0,1,2.63-.51,15.53,15.53,0,0,1,5.09.27,5.72,5.72,0,0,1,1,.32.76.76,0,0,1,.51.95c-.08.55-.13,1.1-.21,1.65A.94.94,0,0,1,50,32a15,15,0,0,0-3.35,6.14,15.65,15.65,0,0,0-.28,7.6c.26,1.3.68,2.55,1,3.84A1.48,1.48,0,0,1,47.49,49.93ZM49.77,29.6c-1.59-1-7.42-.9-8.57,0A16.19,16.19,0,0,0,49.77,29.6Z"/><path class="cls-10" d="M82.18,49.26a12.91,12.91,0,0,1,2,2.85,13.94,13.94,0,0,1,1.68,5.61,12.74,12.74,0,0,1-.1,2.22c0,.11-.16.26-.29.32a19,19,0,0,1-6.07,1.43,13.26,13.26,0,0,1-4.31-.23,7.59,7.59,0,0,1-1.81-.77,1.82,1.82,0,0,1-.9-1.82,4.07,4.07,0,0,1,1.2-2.53,30.46,30.46,0,0,1,5.49-5C80.12,50.65,81.16,50,82.18,49.26Z"/><path class="cls-11" d="M85.48,33.23A16.78,16.78,0,0,1,89.37,41C87.78,40,85.17,34.65,85.48,33.23Z"/><path class="cls-12" d="M49.77,29.6a16,16,0,0,1-8.57,0C42.36,28.7,48.18,28.62,49.77,29.6Z"/></g></g></svg>